<?xml version="1.0" encoding="UTF-8"?>
<!DOCTYPE svg PUBLIC "-//W3C//DTD SVG 1.1//EN" "http://www.w3.org/Graphics/SVG/1.1/DTD/svg11.dtd">
<svg xmlns="http://www.w3.org/2000/svg" version="1.1" width="2180px" height="1839px" style="shape-rendering:geometricPrecision; text-rendering:geometricPrecision; image-rendering:optimizeQuality; fill-rule:evenodd; clip-rule:evenodd" xmlns:xlink="http://www.w3.org/1999/xlink">
<g><path style="opacity:0.999" fill="#030304" d="M -0.5,-0.5 C 726.167,-0.5 1452.83,-0.5 2179.5,-0.5C 2179.5,612.5 2179.5,1225.5 2179.5,1838.5C 1452.83,1838.5 726.167,1838.5 -0.5,1838.5C -0.5,1225.5 -0.5,612.5 -0.5,-0.5 Z"/></g>
<g><path style="opacity:1" fill="#fefefe" d="M 1590.5,429.5 C 1589.45,431.256 1587.78,431.923 1585.5,431.5C 1528.36,428.427 1471.19,425.76 1414,423.5C 1395.34,423.328 1380.34,430.661 1369,445.5C 1362.28,453.886 1355.95,462.553 1350,471.5C 1331.25,507.325 1312.25,542.992 1293,578.5C 1284.67,592.5 1276.33,606.5 1268,620.5C 1266.74,622.746 1264.91,624.079 1262.5,624.5C 1278.76,584.634 1295.6,544.968 1313,505.5C 1323.39,481.225 1332.22,456.391 1339.5,431C 1339.01,428.497 1337.68,426.497 1335.5,425C 1286.83,424.667 1238.17,424.333 1189.5,424C 1165.14,423.244 1140.81,422.077 1116.5,420.5C 1023.58,426.424 930.582,429.257 837.5,429C 835.637,430.418 835.137,432.251 836,434.5C 840.608,447.657 845.608,460.657 851,473.5C 871.605,515.044 891.939,556.711 912,598.5C 915.06,605.68 917.727,613.014 920,620.5C 920.667,623.833 920.667,627.167 920,630.5C 916.947,627.113 914.28,623.447 912,619.5C 887.494,577.826 863.494,535.826 840,493.5C 829.438,477.604 818.105,462.27 806,447.5C 800.096,440.926 793.596,435.092 786.5,430C 783.052,428.073 779.385,426.739 775.5,426C 746.16,425.757 716.827,425.257 687.5,424.5C 646.63,426.109 605.963,429.276 565.5,434C 565,433.5 564.5,433 564,432.5C 563.333,429.167 563.333,425.833 564,422.5C 570.768,398.299 579.768,374.966 591,352.5C 608.078,318.011 625.411,283.678 643,249.5C 651.667,235.5 660.333,221.5 669,207.5C 678.17,199.253 689.003,195.753 701.5,197C 833.317,190.689 965.15,185.189 1097,180.5C 1148.18,181.614 1199.35,183.114 1250.5,185C 1313.22,189.805 1375.89,195.139 1438.5,201C 1444.13,202.185 1449.8,203.185 1455.5,204C 1458.73,205.198 1461.56,207.031 1464,209.5C 1478.17,233.17 1492.83,256.504 1508,279.5C 1530.82,323.143 1555.15,365.81 1581,407.5C 1585.02,414.532 1588.19,421.865 1590.5,429.5 Z"/></g>
<g><path style="opacity:1" fill="#fdfdfd" d="M 1654.5,348.5 C 1694.18,349.254 1731.52,359.088 1766.5,378C 1772.43,381.933 1776.93,387.1 1780,393.5C 1779.16,402.071 1778.49,410.738 1778,419.5C 1777,421.5 1776,423.5 1775,425.5C 1765.75,431.543 1756.58,437.709 1747.5,444C 1714.37,454.391 1682.37,451.725 1651.5,436C 1646.95,433.117 1643.45,429.284 1641,424.5C 1633.18,403.764 1630.84,382.431 1634,360.5C 1635.83,356 1639,352.833 1643.5,351C 1647.39,350.581 1651.06,349.748 1654.5,348.5 Z"/></g>
<g><path style="opacity:1" fill="#fdfdfd" d="M 480.5,352.5 C 490.264,352.295 499.931,353.129 509.5,355C 518.911,358.945 523.244,366.112 522.5,376.5C 521.792,391.131 519.292,405.464 515,419.5C 510.221,428.325 503.055,434.492 493.5,438C 464.544,448.753 435.544,449.087 406.5,439C 397.151,434.749 388.984,428.916 382,421.5C 380.455,418.698 379.622,415.698 379.5,412.5C 380.166,405.847 380.666,399.181 381,392.5C 381.792,390.413 382.959,388.579 384.5,387C 400.434,378.2 416.767,370.2 433.5,363C 449.141,358.799 464.808,355.299 480.5,352.5 Z"/></g>
<g><path style="opacity:1" fill="#69666c" d="M 1590.5,429.5 C 1591.4,430.209 1591.74,431.209 1591.5,432.5C 1589.26,432.795 1587.26,432.461 1585.5,431.5C 1587.78,431.923 1589.45,431.256 1590.5,429.5 Z"/></g>
<g><path style="opacity:1" fill="#f8f8f8" d="M 685.5,565.5 C 688.529,568.859 691.529,572.192 694.5,575.5C 696.833,578.167 699.167,580.833 701.5,583.5C 703.5,586.167 705.833,588.5 708.5,590.5C 709.026,592.23 710.026,593.564 711.5,594.5C 713.167,596.5 714.833,598.5 716.5,600.5C 718.5,603.167 720.833,605.5 723.5,607.5C 730.733,616.289 737.733,625.289 744.5,634.5C 743.675,635.386 742.675,635.719 741.5,635.5C 739.167,632.5 736.5,629.833 733.5,627.5C 727.833,621.167 721.833,615.167 715.5,609.5C 712.5,605.833 709.167,602.5 705.5,599.5C 703.5,596.833 701.167,594.5 698.5,592.5C 695.5,588.833 692.167,585.5 688.5,582.5C 687.167,580.5 685.5,578.833 683.5,577.5C 677.193,571.528 670.86,565.528 664.5,559.5C 628.857,523.685 591.523,489.851 552.5,458C 533.146,447.294 515.979,450.127 501,466.5C 496.144,475.921 493.144,485.921 492,496.5C 491.5,506.161 491.334,515.828 491.5,525.5C 491.951,530.237 492.618,534.903 493.5,539.5C 493.5,540.833 493.5,542.167 493.5,543.5C 493.674,545.861 494.007,548.194 494.5,550.5C 494.927,553.01 495.593,555.343 496.5,557.5C 496.517,559.565 496.85,561.565 497.5,563.5C 498.234,564.708 498.567,566.041 498.5,567.5C 498.5,567.833 498.5,568.167 498.5,568.5C 499.578,571.402 500.244,574.402 500.5,577.5C 501.167,579.833 501.833,582.167 502.5,584.5C 502.5,585.833 502.5,587.167 502.5,588.5C 502.565,588.938 502.399,589.272 502,589.5C 501.722,588.584 501.222,587.918 500.5,587.5C 499.679,583.873 498.346,580.54 496.5,577.5C 495.871,574.603 494.871,571.936 493.5,569.5C 493.405,567.214 492.738,565.214 491.5,563.5C 491.101,559.884 490.101,556.55 488.5,553.5C 488.768,551.901 488.434,550.568 487.5,549.5C 486.288,542.347 484.954,535.347 483.5,528.5C 482.947,523.518 482.613,518.518 482.5,513.5C 482.832,504.475 482.498,495.475 481.5,486.5C 480.893,486.624 480.56,486.957 480.5,487.5C 463.284,493.719 452.284,505.719 447.5,523.5C 445.517,526.799 444.517,530.466 444.5,534.5C 443.515,538.634 443.182,542.968 443.5,547.5C 443.963,550.482 444.296,553.482 444.5,556.5C 444.448,558.903 444.781,561.236 445.5,563.5C 445.5,565.5 445.5,567.5 445.5,569.5C 445.5,570.167 445.5,570.833 445.5,571.5C 445.5,573.167 445.5,574.833 445.5,576.5C 445.657,577.873 445.49,579.207 445,580.5C 444.617,579.944 444.117,579.611 443.5,579.5C 443.573,577.973 442.906,576.973 441.5,576.5C 441.065,573.843 440.065,571.509 438.5,569.5C 438.768,567.901 438.434,566.568 437.5,565.5C 437.737,564.209 437.404,563.209 436.5,562.5C 436.737,561.209 436.404,560.209 435.5,559.5C 435.5,558.833 435.5,558.167 435.5,557.5C 435.768,555.901 435.434,554.568 434.5,553.5C 434.5,552.5 434.5,551.5 434.5,550.5C 434.81,547.287 434.477,544.287 433.5,541.5C 433.5,537.167 433.5,532.833 433.5,528.5C 431.692,528.491 430.025,528.991 428.5,530C 409.549,541.618 392.382,555.451 377,571.5C 372.872,577.422 369.539,583.756 367,590.5C 365.389,601.171 363.889,611.838 362.5,622.5C 362.079,628.202 361.412,633.869 360.5,639.5C 359.833,644.833 359.167,650.167 358.5,655.5C 358.577,659.215 358.244,662.881 357.5,666.5C 357.084,671.493 356.751,676.493 356.5,681.5C 355.653,690.472 355.32,699.472 355.5,708.5C 355.863,766.518 355.029,824.518 353,882.5C 352.282,883.451 351.449,883.617 350.5,883C 349.283,881.352 348.45,879.519 348,877.5C 346.531,860.529 345.531,843.529 345,826.5C 344.486,768.166 343.986,709.833 343.5,651.5C 343.391,631.639 345.225,611.972 349,592.5C 354.463,575.046 363.963,560.213 377.5,548C 390.058,538.898 402.725,530.065 415.5,521.5C 429.036,514.13 440.203,504.13 449,491.5C 459.104,482.192 470.604,475.026 483.5,470C 487.699,465.101 491.532,459.934 495,454.5C 513.216,437.215 534.382,432.048 558.5,439C 563.001,441.416 567.334,444.083 571.5,447C 590.907,463.403 609.407,480.903 627,499.5C 646.742,521.344 666.242,543.344 685.5,565.5 Z"/></g>
<g><path style="opacity:1" fill="#f9f9f9" d="M 1751.5,523.5 C 1755.54,528.031 1760.21,531.865 1765.5,535C 1781.49,542.991 1796.82,551.991 1811.5,562C 1825.45,577.081 1833.62,594.914 1836,615.5C 1837.74,627.79 1839.08,640.124 1840,652.5C 1840.5,682.498 1840.67,712.498 1840.5,742.5C 1837.77,781.444 1835.94,820.444 1835,859.5C 1834.58,863.921 1833.75,868.254 1832.5,872.5C 1830.93,871.286 1830.1,869.619 1830,867.5C 1829.42,826.497 1829.59,785.497 1830.5,744.5C 1831.77,726.984 1831.77,709.317 1830.5,691.5C 1829.83,684.833 1829.17,678.167 1828.5,671.5C 1828.33,666.819 1828,662.152 1827.5,657.5C 1826.87,652.859 1826.54,648.193 1826.5,643.5C 1825.83,638.167 1825.17,632.833 1824.5,627.5C 1823.47,619.975 1821.8,612.642 1819.5,605.5C 1815.76,593.349 1809.93,582.349 1802,572.5C 1789.92,564.209 1777.75,556.043 1765.5,548C 1758.71,542.875 1752.21,537.375 1746,531.5C 1746.14,539.147 1746.31,546.813 1746.5,554.5C 1746.5,556.167 1746.5,557.833 1746.5,559.5C 1746.5,560.167 1746.5,560.833 1746.5,561.5C 1745.52,564.625 1745.19,567.958 1745.5,571.5C 1744.54,573.265 1744.21,575.265 1744.5,577.5C 1743.57,578.568 1743.23,579.901 1743.5,581.5C 1742.57,582.568 1742.23,583.901 1742.5,585.5C 1741.5,585.5 1740.5,585.5 1739.5,585.5C 1739.8,582.941 1739.47,580.607 1738.5,578.5C 1738.83,570.316 1738.49,562.316 1737.5,554.5C 1737.82,548.974 1737.49,543.64 1736.5,538.5C 1736.78,536.585 1736.45,534.919 1735.5,533.5C 1731.45,522.267 1724.79,512.767 1715.5,505C 1708.4,499.032 1700.57,494.199 1692,490.5C 1691.5,490.833 1691,491.167 1690.5,491.5C 1694.17,503.558 1696.17,515.891 1696.5,528.5C 1696.5,536.167 1696.5,543.833 1696.5,551.5C 1695.57,552.568 1695.23,553.901 1695.5,555.5C 1694.57,558.656 1693.9,561.989 1693.5,565.5C 1692.57,566.568 1692.23,567.901 1692.5,569.5C 1690.59,573.216 1689.26,577.216 1688.5,581.5C 1687.82,583.685 1686.82,585.019 1685.5,585.5C 1685.5,585.167 1685.5,584.833 1685.5,584.5C 1685.88,582.079 1686.54,579.746 1687.5,577.5C 1688.01,574.461 1688.68,571.461 1689.5,568.5C 1689.5,568.167 1689.5,567.833 1689.5,567.5C 1689.52,565.435 1689.85,563.435 1690.5,561.5C 1691.76,553.025 1691.76,544.692 1690.5,536.5C 1690.64,531.586 1689.97,526.919 1688.5,522.5C 1684.08,492.614 1668.42,471.114 1641.5,458C 1631.25,453.915 1621.58,454.915 1612.5,461C 1581.26,493.736 1550.59,526.903 1520.5,560.5C 1513.83,567.175 1507.49,574.175 1501.5,581.5C 1498.45,583.549 1496.12,586.216 1494.5,589.5C 1491.83,591.5 1489.5,593.833 1487.5,596.5C 1485.2,599.141 1482.86,601.808 1480.5,604.5C 1476.79,607.211 1473.79,610.544 1471.5,614.5C 1464.83,620.5 1458.5,626.833 1452.5,633.5C 1449.83,635.5 1447.5,637.833 1445.5,640.5C 1444.13,640.657 1442.79,640.49 1441.5,640C 1442.33,638.184 1443.16,636.351 1444,634.5C 1449.33,627.669 1454.83,621.002 1460.5,614.5C 1462.88,612.116 1464.88,609.45 1466.5,606.5C 1468.89,605.109 1470.56,603.109 1471.5,600.5C 1473.59,599.415 1474.92,597.749 1475.5,595.5C 1478.22,593.781 1480.22,591.447 1481.5,588.5C 1484.39,585.729 1487.06,582.729 1489.5,579.5C 1496.07,572.018 1502.41,564.351 1508.5,556.5C 1539.45,518.544 1570.45,480.544 1601.5,442.5C 1603.49,440.501 1605.83,439.001 1608.5,438C 1630.35,438.588 1649.68,445.921 1666.5,460C 1674.99,469.42 1685.33,476.087 1697.5,480C 1717.99,491.41 1735.99,505.91 1751.5,523.5 Z"/></g>
<g><path style="opacity:1" fill="#040506" d="M 664.5,559.5 C 664.083,560.124 663.416,560.457 662.5,560.5C 605.32,549.621 548.32,537.954 491.5,525.5C 491.334,515.828 491.5,506.161 492,496.5C 493.144,485.921 496.144,475.921 501,466.5C 515.979,450.127 533.146,447.294 552.5,458C 591.523,489.851 628.857,523.685 664.5,559.5 Z"/></g>
<g><path style="opacity:1" fill="#040405" d="M 1688.5,522.5 C 1688.79,524.288 1688.45,525.955 1687.5,527.5C 1632.93,540.047 1578.1,551.38 1523,561.5C 1521.93,561.472 1521.1,561.139 1520.5,560.5C 1550.59,526.903 1581.26,493.736 1612.5,461C 1621.58,454.915 1631.25,453.915 1641.5,458C 1668.42,471.114 1684.08,492.614 1688.5,522.5 Z"/></g>
<g><path style="opacity:1" fill="#928f94" d="M 480.5,487.5 C 480.56,486.957 480.893,486.624 481.5,486.5C 482.498,495.475 482.832,504.475 482.5,513.5C 481.833,504.833 481.167,496.167 480.5,487.5 Z"/></g>
<g><path style="opacity:1" fill="#07080b" d="M 480.5,487.5 C 481.167,496.167 481.833,504.833 482.5,513.5C 482.613,518.518 482.947,523.518 483.5,528.5C 483.5,529.833 483.5,531.167 483.5,532.5C 475.051,530.644 466.551,528.977 458,527.5C 454.057,526.726 450.557,525.393 447.5,523.5C 452.284,505.719 463.284,493.719 480.5,487.5 Z"/></g>
<g><path style="opacity:1" fill="#0f0f12" d="M 415.5,521.5 C 402.725,530.065 390.058,538.898 377.5,548C 363.963,560.213 354.463,575.046 349,592.5C 345.225,611.972 343.391,631.639 343.5,651.5C 338.379,621.105 342.213,591.771 355,563.5C 368.348,539.738 388.515,525.738 415.5,521.5 Z"/></g>
<g><path style="opacity:1" fill="#121215" d="M 1751.5,523.5 C 1803.53,525.446 1834.03,552.113 1843,603.5C 1846.52,623.563 1846.19,643.563 1842,663.5C 1841.83,690.003 1841.33,716.337 1840.5,742.5C 1840.67,712.498 1840.5,682.498 1840,652.5C 1839.08,640.124 1837.74,627.79 1836,615.5C 1833.62,594.914 1825.45,577.081 1811.5,562C 1796.82,551.991 1781.49,542.991 1765.5,535C 1760.21,531.865 1755.54,528.031 1751.5,523.5 Z"/></g>
<g><path style="opacity:1" fill="#0a0b0e" d="M 1735.5,533.5 C 1735.12,534.931 1734.12,535.764 1732.5,536C 1720.83,537.868 1709.33,540.368 1698,543.5C 1697.83,538.316 1697.33,533.316 1696.5,528.5C 1696.17,515.891 1694.17,503.558 1690.5,491.5C 1691,491.167 1691.5,490.833 1692,490.5C 1700.57,494.199 1708.4,499.032 1715.5,505C 1724.79,512.767 1731.45,522.267 1735.5,533.5 Z"/></g>
<g><path style="opacity:1" fill="#0c0d10" d="M 491.5,525.5 C 548.32,537.954 605.32,549.621 662.5,560.5C 663.416,560.457 664.083,560.124 664.5,559.5C 670.86,565.528 677.193,571.528 683.5,577.5C 620.001,566.8 556.667,554.133 493.5,539.5C 492.618,534.903 491.951,530.237 491.5,525.5 Z"/></g>
<g><path style="opacity:1" fill="#0c0d10" d="M 1688.5,522.5 C 1689.97,526.919 1690.64,531.586 1690.5,536.5C 1690.5,539.167 1690.5,541.833 1690.5,544.5C 1628.08,558.518 1565.41,571.518 1502.5,583.5C 1501.7,583.043 1501.37,582.376 1501.5,581.5C 1507.49,574.175 1513.83,567.175 1520.5,560.5C 1521.1,561.139 1521.93,561.472 1523,561.5C 1578.1,551.38 1632.93,540.047 1687.5,527.5C 1688.45,525.955 1688.79,524.288 1688.5,522.5 Z"/></g>
<g><path style="opacity:1" fill="#1d1d22" d="M 447.5,523.5 C 450.557,525.393 454.057,526.726 458,527.5C 466.551,528.977 475.051,530.644 483.5,532.5C 483.5,531.167 483.5,529.833 483.5,528.5C 484.954,535.347 486.288,542.347 487.5,549.5C 474.096,545.92 460.429,543.42 446.5,542C 444.709,539.894 444.042,537.394 444.5,534.5C 444.517,530.466 445.517,526.799 447.5,523.5 Z"/></g>
<g><path style="opacity:1" fill="#16171b" d="M 493.5,539.5 C 556.667,554.133 620.001,566.8 683.5,577.5C 685.5,578.833 687.167,580.5 688.5,582.5C 686.837,582.298 685.004,582.631 683,583.5C 632.115,573.59 581.282,563.423 530.5,553C 517.878,550.595 505.544,547.428 493.5,543.5C 493.5,542.167 493.5,540.833 493.5,539.5 Z"/></g>
<g><path style="opacity:1" fill="#1d1d22" d="M 1696.5,528.5 C 1697.33,533.316 1697.83,538.316 1698,543.5C 1709.33,540.368 1720.83,537.868 1732.5,536C 1734.12,535.764 1735.12,534.931 1735.5,533.5C 1736.45,534.919 1736.78,536.585 1736.5,538.5C 1736.5,540.167 1736.5,541.833 1736.5,543.5C 1723.03,545.527 1709.7,548.193 1696.5,551.5C 1696.5,543.833 1696.5,536.167 1696.5,528.5 Z"/></g>
<g><path style="opacity:1" fill="#2e2e34" d="M 444.5,534.5 C 444.042,537.394 444.709,539.894 446.5,542C 460.429,543.42 474.096,545.92 487.5,549.5C 488.434,550.568 488.768,551.901 488.5,553.5C 488.38,554.586 487.713,555.253 486.5,555.5C 472.343,551.802 458.01,549.135 443.5,547.5C 443.182,542.968 443.515,538.634 444.5,534.5 Z"/></g>
<g><path style="opacity:1" fill="#16171b" d="M 1690.5,544.5 C 1690.5,546.167 1690.5,547.833 1690.5,549.5C 1625.43,563.98 1560.1,577.313 1494.5,589.5C 1496.12,586.216 1498.45,583.549 1501.5,581.5C 1501.37,582.376 1501.7,583.043 1502.5,583.5C 1565.41,571.518 1628.08,558.518 1690.5,544.5 Z"/></g>
<g><path style="opacity:1" fill="#333238" d="M 433.5,541.5 C 434.477,544.287 434.81,547.287 434.5,550.5C 406.175,550.657 387.008,563.99 377,590.5C 368.405,618.174 369.905,645.174 381.5,671.5C 392.703,688.424 407.703,700.59 426.5,708C 480.768,727.653 536.768,738.32 594.5,740C 616.422,738.687 637.089,733.021 656.5,723C 664.395,718.598 672.395,714.431 680.5,710.5C 687.93,705.734 695.597,701.4 703.5,697.5C 715.104,690.053 725.604,681.386 735,671.5C 742.272,660.477 744.439,648.477 741.5,635.5C 742.675,635.719 743.675,635.386 744.5,634.5C 737.733,625.289 730.733,616.289 723.5,607.5C 742.568,618.306 750.401,634.64 747,656.5C 744.835,665.165 740.835,672.831 735,679.5C 724.657,689.586 713.157,698.086 700.5,705C 682.783,714.859 664.783,724.192 646.5,733C 619.829,744.084 592.163,747.751 563.5,744C 518.105,739.188 473.771,729.521 430.5,715C 388.302,700.807 366.968,671.473 366.5,627C 365.073,599.211 374.406,575.878 394.5,557C 406.203,548.933 419.203,544.766 433.5,544.5C 433.5,543.5 433.5,542.5 433.5,541.5 Z"/></g>
<g><path style="opacity:1" fill="#27262c" d="M 1736.5,543.5 C 1736.92,546.079 1736.25,548.246 1734.5,550C 1722.22,551.945 1710.05,554.445 1698,557.5C 1696.62,557.316 1695.79,556.649 1695.5,555.5C 1695.23,553.901 1695.57,552.568 1696.5,551.5C 1709.7,548.193 1723.03,545.527 1736.5,543.5 Z"/></g>
<g><path style="opacity:1" fill="#212126" d="M 493.5,543.5 C 505.544,547.428 517.878,550.595 530.5,553C 581.282,563.423 632.115,573.59 683,583.5C 685.004,582.631 686.837,582.298 688.5,582.5C 692.167,585.5 695.5,588.833 698.5,592.5C 633.852,580.938 569.186,568.104 504.5,554C 500.875,553.434 497.542,552.268 494.5,550.5C 494.007,548.194 493.674,545.861 493.5,543.5 Z"/></g>
<g><path style="opacity:1" fill="#3f3d43" d="M 443.5,547.5 C 458.01,549.135 472.343,551.802 486.5,555.5C 487.713,555.253 488.38,554.586 488.5,553.5C 490.101,556.55 491.101,559.884 491.5,563.5C 491.631,564.376 491.298,565.043 490.5,565.5C 475.415,561.229 460.082,558.229 444.5,556.5C 444.296,553.482 443.963,550.482 443.5,547.5 Z"/></g>
<g><path style="opacity:1" fill="#3f3e44" d="M 434.5,550.5 C 434.5,551.5 434.5,552.5 434.5,553.5C 399.767,557.735 380.601,577.402 377,612.5C 371.392,659.149 390.559,690.315 434.5,706C 483.255,722.617 533.422,732.451 585,735.5C 604.107,735.152 622.607,731.652 640.5,725C 656.206,718.032 671.206,710.199 685.5,701.5C 686.642,699.567 688.308,698.067 690.5,697C 691.793,696.51 693.127,696.343 694.5,696.5C 710.35,689.395 723.35,678.728 733.5,664.5C 737.713,655.147 738.546,645.48 736,635.5C 734.999,632.827 733.499,630.493 731.5,628.5C 731.957,627.702 732.624,627.369 733.5,627.5C 736.5,629.833 739.167,632.5 741.5,635.5C 744.439,648.477 742.272,660.477 735,671.5C 725.604,681.386 715.104,690.053 703.5,697.5C 695.597,701.4 687.93,705.734 680.5,710.5C 672.395,714.431 664.395,718.598 656.5,723C 637.089,733.021 616.422,738.687 594.5,740C 536.768,738.32 480.768,727.653 426.5,708C 407.703,700.59 392.703,688.424 381.5,671.5C 369.905,645.174 368.405,618.174 377,590.5C 387.008,563.99 406.175,550.657 434.5,550.5 Z"/></g>
<g><path style="opacity:1" fill="#38373d" d="M 1736.5,538.5 C 1737.49,543.64 1737.82,548.974 1737.5,554.5C 1737.5,556.5 1737.5,558.5 1737.5,560.5C 1722.68,562.205 1708.01,564.871 1693.5,568.5C 1693.5,567.5 1693.5,566.5 1693.5,565.5C 1693.9,561.989 1694.57,558.656 1695.5,555.5C 1695.79,556.649 1696.62,557.316 1698,557.5C 1710.05,554.445 1722.22,551.945 1734.5,550C 1736.25,548.246 1736.92,546.079 1736.5,543.5C 1736.5,541.833 1736.5,540.167 1736.5,538.5 Z"/></g>
<g><path style="opacity:1" fill="#333338" d="M 1819.5,605.5 C 1818.84,606.622 1818.51,607.955 1818.5,609.5C 1827.42,664.184 1806.09,701.017 1754.5,720C 1704.81,736.706 1653.81,746.539 1601.5,749.5C 1578.81,749.912 1557.15,745.412 1536.5,736C 1508.19,722.855 1481.52,707.188 1456.5,689C 1432.17,663.869 1432.51,639.202 1457.5,615C 1458.45,614.517 1459.45,614.351 1460.5,614.5C 1454.83,621.002 1449.33,627.669 1444,634.5C 1443.16,636.351 1442.33,638.184 1441.5,640C 1442.79,640.49 1444.13,640.657 1445.5,640.5C 1443.26,652.566 1445.09,663.899 1451,674.5C 1458.89,683.39 1467.72,691.224 1477.5,698C 1496.31,709.402 1515.65,720.068 1535.5,730C 1566.05,743.332 1598.05,747.332 1631.5,742C 1678.65,736.463 1724.31,725.13 1768.5,708C 1796.38,695.109 1811.54,673.275 1814,642.5C 1816.46,618.769 1811.79,596.769 1800,576.5C 1786.01,560.325 1768.18,552.991 1746.5,554.5C 1746.31,546.813 1746.14,539.147 1746,531.5C 1752.21,537.375 1758.71,542.875 1765.5,548C 1777.75,556.043 1789.92,564.209 1802,572.5C 1809.93,582.349 1815.76,593.349 1819.5,605.5 Z"/></g>
<g><path style="opacity:1" fill="#212126" d="M 1690.5,549.5 C 1691.57,554.701 1689.57,557.535 1684.5,558C 1618.54,572.561 1552.87,585.395 1487.5,596.5C 1489.5,593.833 1491.83,591.5 1494.5,589.5C 1560.1,577.313 1625.43,563.98 1690.5,549.5 Z"/></g>
<g><path style="opacity:1" fill="#2e2d33" d="M 494.5,550.5 C 497.542,552.268 500.875,553.434 504.5,554C 569.186,568.104 633.852,580.938 698.5,592.5C 701.167,594.5 703.5,596.833 705.5,599.5C 703.712,600.622 701.712,600.789 699.5,600C 631.657,586.472 563.991,572.306 496.5,557.5C 495.593,555.343 494.927,553.01 494.5,550.5 Z"/></g>
<g><path style="opacity:1" fill="#060709" d="M 1508.5,556.5 C 1502.41,564.351 1496.07,572.018 1489.5,579.5C 1463.96,583.016 1443.12,594.682 1427,614.5C 1408.14,650.528 1414.31,681.694 1445.5,708C 1471.53,725.689 1498.86,741.356 1527.5,755C 1556.79,768.215 1587.46,773.215 1619.5,770C 1665.79,765.276 1711.12,755.943 1755.5,742C 1781.55,734.572 1803.39,720.738 1821,700.5C 1823.92,696.334 1826.58,692.001 1829,687.5C 1829.21,689.058 1829.71,690.391 1830.5,691.5C 1831.77,709.317 1831.77,726.984 1830.5,744.5C 1830.67,736.16 1830.5,727.827 1830,719.5C 1815.08,735.386 1797.24,746.886 1776.5,754C 1719.36,774.228 1660.53,785.728 1600,788.5C 1570.31,789.228 1542.14,783.062 1515.5,770C 1485.02,755.27 1456.02,738.27 1428.5,719C 1398.3,690.711 1389.8,656.878 1403,617.5C 1412.95,596.215 1428.79,581.049 1450.5,572C 1469.33,564.958 1488.67,559.792 1508.5,556.5 Z"/></g>
<g><path style="opacity:1" fill="#403f44" d="M 1746.5,554.5 C 1768.18,552.991 1786.01,560.325 1800,576.5C 1811.79,596.769 1816.46,618.769 1814,642.5C 1811.54,673.275 1796.38,695.109 1768.5,708C 1724.31,725.13 1678.65,736.463 1631.5,742C 1598.05,747.332 1566.05,743.332 1535.5,730C 1515.65,720.068 1496.31,709.402 1477.5,698C 1467.72,691.224 1458.89,683.39 1451,674.5C 1445.09,663.899 1443.26,652.566 1445.5,640.5C 1447.5,637.833 1449.83,635.5 1452.5,633.5C 1453.04,633.56 1453.38,633.893 1453.5,634.5C 1446.74,649.621 1448.57,663.621 1459,676.5C 1468.78,686.808 1479.95,695.308 1492.5,702C 1508.26,710.879 1524.26,719.212 1540.5,727C 1550.49,730.122 1560.49,733.455 1570.5,737C 1587.08,739.43 1603.75,740.097 1620.5,739C 1669.19,733.465 1716.52,722.465 1762.5,706C 1763.97,705.29 1764.64,704.124 1764.5,702.5C 1782.35,697.167 1795.18,685.834 1803,668.5C 1805.81,662.071 1807.81,655.405 1809,648.5C 1809.67,636.5 1809.67,624.5 1809,612.5C 1803.06,577.13 1782.22,559.463 1746.5,559.5C 1746.5,557.833 1746.5,556.167 1746.5,554.5 Z"/></g>
<g><path style="opacity:1" fill="#2e2d33" d="M 1690.5,536.5 C 1691.76,544.692 1691.76,553.025 1690.5,561.5C 1620.29,576.141 1550.29,590.474 1480.5,604.5C 1482.86,601.808 1485.2,599.141 1487.5,596.5C 1552.87,585.395 1618.54,572.561 1684.5,558C 1689.57,557.535 1691.57,554.701 1690.5,549.5C 1690.5,547.833 1690.5,546.167 1690.5,544.5C 1690.5,541.833 1690.5,539.167 1690.5,536.5 Z"/></g>
<g><path style="opacity:1" fill="#29292e" d="M 433.5,541.5 C 433.5,542.5 433.5,543.5 433.5,544.5C 419.203,544.766 406.203,548.933 394.5,557C 374.406,575.878 365.073,599.211 366.5,627C 366.968,671.473 388.302,700.807 430.5,715C 473.771,729.521 518.105,739.188 563.5,744C 592.163,747.751 619.829,744.084 646.5,733C 664.783,724.192 682.783,714.859 700.5,705C 713.157,698.086 724.657,689.586 735,679.5C 740.835,672.831 744.835,665.165 747,656.5C 750.401,634.64 742.568,618.306 723.5,607.5C 720.833,605.5 718.5,603.167 716.5,600.5C 743.428,611.783 754.261,631.783 749,660.5C 744.357,673.938 736.19,684.771 724.5,693C 701.13,708.367 676.797,722.034 651.5,734C 621.059,746.93 589.392,750.93 556.5,746C 512.825,740.748 470.158,731.081 428.5,717C 383.869,701.22 361.869,669.72 362.5,622.5C 363.889,611.838 365.389,601.171 367,590.5C 369.539,583.756 372.872,577.422 377,571.5C 392.382,555.451 409.549,541.618 428.5,530C 430.025,528.991 431.692,528.491 433.5,528.5C 433.5,532.833 433.5,537.167 433.5,541.5 Z"/></g>
<g><path style="opacity:1" fill="#3b3a3f" d="M 496.5,557.5 C 563.991,572.306 631.657,586.472 699.5,600C 701.712,600.789 703.712,600.622 705.5,599.5C 709.167,602.5 712.5,605.833 715.5,609.5C 715.44,610.043 715.107,610.376 714.5,610.5C 704.033,606.716 693.366,603.549 682.5,601C 620.699,589.073 559.032,576.573 497.5,563.5C 496.85,561.565 496.517,559.565 496.5,557.5 Z"/></g>
<g><path style="opacity:1" fill="#555358" d="M 444.5,556.5 C 460.082,558.229 475.415,561.229 490.5,565.5C 491.298,565.043 491.631,564.376 491.5,563.5C 492.738,565.214 493.405,567.214 493.5,569.5C 492.848,570.725 491.681,571.392 490,571.5C 475.307,567.995 460.474,565.328 445.5,563.5C 444.781,561.236 444.448,558.903 444.5,556.5 Z"/></g>
<g><path style="opacity:1" fill="#39383d" d="M 1690.5,561.5 C 1689.85,563.435 1689.52,565.435 1689.5,567.5C 1628.97,580.24 1568.3,592.407 1507.5,604C 1495.14,606.587 1483.14,610.087 1471.5,614.5C 1473.79,610.544 1476.79,607.211 1480.5,604.5C 1550.29,590.474 1620.29,576.141 1690.5,561.5 Z"/></g>
<g><path style="opacity:1" fill="#4d4a50" d="M 1737.5,560.5 C 1737.5,561.833 1737.5,563.167 1737.5,564.5C 1724.5,566.997 1711.5,569.664 1698.5,572.5C 1695.61,572.931 1693.61,571.931 1692.5,569.5C 1692.23,567.901 1692.57,566.568 1693.5,565.5C 1693.5,566.5 1693.5,567.5 1693.5,568.5C 1708.01,564.871 1722.68,562.205 1737.5,560.5 Z"/></g>
<g><path style="opacity:1" fill="#0a0b0e" d="M 685.5,565.5 C 708.072,568.745 729.072,576.245 748.5,588C 776.074,610.743 784.241,639.243 773,673.5C 765.827,689.678 754.994,702.845 740.5,713C 714.973,728.934 688.64,743.601 661.5,757C 637.663,767.709 612.663,773.209 586.5,773.5C 526.802,769.927 468.802,758.094 412.5,738C 389.969,729.458 371.469,715.624 357,696.5C 356.824,700.688 356.324,704.688 355.5,708.5C 355.32,699.472 355.653,690.472 356.5,681.5C 357.268,680.737 357.768,679.737 358,678.5C 371.006,703.503 390.839,720.669 417.5,730C 477.918,752.084 540.251,763.084 604.5,763C 622.593,761.143 639.926,756.477 656.5,749C 682.798,736.522 708.132,722.522 732.5,707C 752.504,694.159 764.338,675.992 768,652.5C 769.14,623.605 756.973,602.439 731.5,589C 719.466,583.601 707.132,579.101 694.5,575.5C 691.529,572.192 688.529,568.859 685.5,565.5 Z"/></g>
<g><path style="opacity:1" fill="#69666c" d="M 445.5,563.5 C 460.474,565.328 475.307,567.995 490,571.5C 491.681,571.392 492.848,570.725 493.5,569.5C 494.871,571.936 495.871,574.603 496.5,577.5C 496.03,578.693 495.03,579.36 493.5,579.5C 477.525,575.502 461.525,572.168 445.5,569.5C 445.5,567.5 445.5,565.5 445.5,563.5 Z"/></g>
<g><path style="opacity:1" fill="#101115" d="M 694.5,575.5 C 707.132,579.101 719.466,583.601 731.5,589C 756.973,602.439 769.14,623.605 768,652.5C 764.338,675.992 752.504,694.159 732.5,707C 708.132,722.522 682.798,736.522 656.5,749C 639.926,756.477 622.593,761.143 604.5,763C 540.251,763.084 477.918,752.084 417.5,730C 390.839,720.669 371.006,703.503 358,678.5C 357.768,679.737 357.268,680.737 356.5,681.5C 356.751,676.493 357.084,671.493 357.5,666.5C 366.235,690.075 381.901,707.575 404.5,719C 433.107,731.571 462.774,740.904 493.5,747C 523.972,753.877 554.805,758.044 586,759.5C 610.642,759.464 634.142,754.297 656.5,744C 684.472,730.689 711.139,715.355 736.5,698C 759.783,679.153 767.616,655.319 760,626.5C 751.552,607.387 737.386,594.554 717.5,588C 712.287,585.983 706.954,584.483 701.5,583.5C 699.167,580.833 696.833,578.167 694.5,575.5 Z"/></g>
<g><path style="opacity:1" fill="#5f5d63" d="M 1737.5,564.5 C 1737.68,566.591 1737.35,568.591 1736.5,570.5C 1732.02,571.316 1727.52,571.983 1723,572.5C 1711.84,576.437 1700.34,579.437 1688.5,581.5C 1689.26,577.216 1690.59,573.216 1692.5,569.5C 1693.61,571.931 1695.61,572.931 1698.5,572.5C 1711.5,569.664 1724.5,566.997 1737.5,564.5 Z"/></g>
<g><path style="opacity:1" fill="#0f1014" d="M 1489.5,579.5 C 1487.06,582.729 1484.39,585.729 1481.5,588.5C 1460.87,593.048 1444.37,603.715 1432,620.5C 1416.86,652.106 1422.69,679.273 1449.5,702C 1479,722.421 1510.33,739.754 1543.5,754C 1562.05,760.897 1581.21,764.063 1601,763.5C 1656.31,760.704 1710.15,750.204 1762.5,732C 1793.75,721.572 1815.75,701.405 1828.5,671.5C 1829.17,678.167 1829.83,684.833 1830.5,691.5C 1829.71,690.391 1829.21,689.058 1829,687.5C 1826.58,692.001 1823.92,696.334 1821,700.5C 1803.39,720.738 1781.55,734.572 1755.5,742C 1711.12,755.943 1665.79,765.276 1619.5,770C 1587.46,773.215 1556.79,768.215 1527.5,755C 1498.86,741.356 1471.53,725.689 1445.5,708C 1414.31,681.694 1408.14,650.528 1427,614.5C 1443.12,594.682 1463.96,583.016 1489.5,579.5 Z"/></g>
<g><path style="opacity:1" fill="#16171b" d="M 701.5,583.5 C 706.954,584.483 712.287,585.983 717.5,588C 737.386,594.554 751.552,607.387 760,626.5C 767.616,655.319 759.783,679.153 736.5,698C 711.139,715.355 684.472,730.689 656.5,744C 634.142,754.297 610.642,759.464 586,759.5C 554.805,758.044 523.972,753.877 493.5,747C 462.774,740.904 433.107,731.571 404.5,719C 381.901,707.575 366.235,690.075 357.5,666.5C 358.244,662.881 358.577,659.215 358.5,655.5C 361.714,662.585 364.881,669.918 368,677.5C 381.478,699.679 400.644,714.846 425.5,723C 477.365,741.006 530.699,751.506 585.5,754.5C 609.259,754.715 631.926,749.882 653.5,740C 680.972,726.771 707.305,711.771 732.5,695C 748.393,682.713 757.06,666.547 758.5,646.5C 756.043,621.204 743.043,603.704 719.5,594C 715.979,592.326 712.313,591.16 708.5,590.5C 705.833,588.5 703.5,586.167 701.5,583.5 Z"/></g>
<g><path style="opacity:1" fill="#7a787d" d="M 1737.5,554.5 C 1738.49,562.316 1738.83,570.316 1738.5,578.5C 1738.5,578.833 1738.5,579.167 1738.5,579.5C 1728.56,581.322 1718.56,582.822 1708.5,584C 1670.04,593.226 1631.37,601.559 1592.5,609C 1559.89,618.554 1526.56,625.554 1492.5,630C 1484.57,632.951 1477.4,637.118 1471,642.5C 1469.99,644.025 1469.49,645.692 1469.5,647.5C 1468.83,647.5 1468.17,647.5 1467.5,647.5C 1467.32,642.538 1469.32,638.705 1473.5,636C 1477.18,634.159 1480.52,631.826 1483.5,629C 1488.8,628.095 1493.8,626.429 1498.5,624C 1561.07,611.854 1623.4,599.02 1685.5,585.5C 1686.82,585.019 1687.82,583.685 1688.5,581.5C 1700.34,579.437 1711.84,576.437 1723,572.5C 1727.52,571.983 1732.02,571.316 1736.5,570.5C 1737.35,568.591 1737.68,566.591 1737.5,564.5C 1737.5,563.167 1737.5,561.833 1737.5,560.5C 1737.5,558.5 1737.5,556.5 1737.5,554.5 Z"/></g>
<g><path style="opacity:1" fill="#16171c" d="M 1481.5,588.5 C 1480.22,591.447 1478.22,593.781 1475.5,595.5C 1456.46,600.766 1442.29,612.1 1433,629.5C 1424.02,657.24 1430.86,680.407 1453.5,699C 1484.27,720.557 1517.27,738.224 1552.5,752C 1575.1,758.176 1598.1,760.176 1621.5,758C 1668.6,753.057 1714.6,743.057 1759.5,728C 1784.64,719.838 1804.14,704.671 1818,682.5C 1822.09,674.396 1825.25,666.063 1827.5,657.5C 1828,662.152 1828.33,666.819 1828.5,671.5C 1815.75,701.405 1793.75,721.572 1762.5,732C 1710.15,750.204 1656.31,760.704 1601,763.5C 1581.21,764.063 1562.05,760.897 1543.5,754C 1510.33,739.754 1479,722.421 1449.5,702C 1422.69,679.273 1416.86,652.106 1432,620.5C 1444.37,603.715 1460.87,593.048 1481.5,588.5 Z"/></g>
<g><path style="opacity:1" fill="#1d1d22" d="M 708.5,590.5 C 712.313,591.16 715.979,592.326 719.5,594C 743.043,603.704 756.043,621.204 758.5,646.5C 757.06,666.547 748.393,682.713 732.5,695C 707.305,711.771 680.972,726.771 653.5,740C 631.926,749.882 609.259,754.715 585.5,754.5C 530.699,751.506 477.365,741.006 425.5,723C 400.644,714.846 381.478,699.679 368,677.5C 364.881,669.918 361.714,662.585 358.5,655.5C 359.167,650.167 359.833,644.833 360.5,639.5C 364.232,675.758 382.899,701.258 416.5,716C 471.094,736.52 527.594,748.353 586,751.5C 608.476,751.472 629.976,746.972 650.5,738C 679.431,724.875 706.765,709.209 732.5,691C 755.556,670.826 760.389,646.993 747,619.5C 738.041,607.102 726.208,598.769 711.5,594.5C 710.026,593.564 709.026,592.23 708.5,590.5 Z"/></g>
<g><path style="opacity:1" fill="#232228" d="M 711.5,594.5 C 726.208,598.769 738.041,607.102 747,619.5C 760.389,646.993 755.556,670.826 732.5,691C 706.765,709.209 679.431,724.875 650.5,738C 629.976,746.972 608.476,751.472 586,751.5C 527.594,748.353 471.094,736.52 416.5,716C 382.899,701.258 364.232,675.758 360.5,639.5C 361.412,633.869 362.079,628.202 362.5,622.5C 361.869,669.72 383.869,701.22 428.5,717C 470.158,731.081 512.825,740.748 556.5,746C 589.392,750.93 621.059,746.93 651.5,734C 676.797,722.034 701.13,708.367 724.5,693C 736.19,684.771 744.357,673.938 749,660.5C 754.261,631.783 743.428,611.783 716.5,600.5C 714.833,598.5 713.167,596.5 711.5,594.5 Z"/></g>
<g><path style="opacity:1" fill="#1d1d22" d="M 1475.5,595.5 C 1474.92,597.749 1473.59,599.415 1471.5,600.5C 1439.13,613.571 1427.3,636.904 1436,670.5C 1442.64,683.805 1452.14,694.639 1464.5,703C 1490.45,719.146 1517.45,733.479 1545.5,746C 1568.81,754.331 1592.81,757.331 1617.5,755C 1670.85,750.078 1722.52,738.078 1772.5,719C 1804.29,703.71 1822.29,678.544 1826.5,643.5C 1826.54,648.193 1826.87,652.859 1827.5,657.5C 1825.25,666.063 1822.09,674.396 1818,682.5C 1804.14,704.671 1784.64,719.838 1759.5,728C 1714.6,743.057 1668.6,753.057 1621.5,758C 1598.1,760.176 1575.1,758.176 1552.5,752C 1517.27,738.224 1484.27,720.557 1453.5,699C 1430.86,680.407 1424.02,657.24 1433,629.5C 1442.29,612.1 1456.46,600.766 1475.5,595.5 Z"/></g>
<g><path style="opacity:1" fill="#232328" d="M 1471.5,600.5 C 1470.56,603.109 1468.89,605.109 1466.5,606.5C 1447.18,615.177 1436.85,630.177 1435.5,651.5C 1436.7,668.268 1443.7,682.101 1456.5,693C 1479.01,708.764 1502.68,722.764 1527.5,735C 1558.47,750.188 1591.14,755.521 1625.5,751C 1670.47,745.756 1714.47,736.09 1757.5,722C 1801.84,706.179 1824.17,674.679 1824.5,627.5C 1825.17,632.833 1825.83,638.167 1826.5,643.5C 1822.29,678.544 1804.29,703.71 1772.5,719C 1722.52,738.078 1670.85,750.078 1617.5,755C 1592.81,757.331 1568.81,754.331 1545.5,746C 1517.45,733.479 1490.45,719.146 1464.5,703C 1452.14,694.639 1442.64,683.805 1436,670.5C 1427.3,636.904 1439.13,613.571 1471.5,600.5 Z"/></g>
<g><path style="opacity:1" fill="#29292e" d="M 1819.5,605.5 C 1821.8,612.642 1823.47,619.975 1824.5,627.5C 1824.17,674.679 1801.84,706.179 1757.5,722C 1714.47,736.09 1670.47,745.756 1625.5,751C 1591.14,755.521 1558.47,750.188 1527.5,735C 1502.68,722.764 1479.01,708.764 1456.5,693C 1443.7,682.101 1436.7,668.268 1435.5,651.5C 1436.85,630.177 1447.18,615.177 1466.5,606.5C 1464.88,609.45 1462.88,612.116 1460.5,614.5C 1459.45,614.351 1458.45,614.517 1457.5,615C 1432.51,639.202 1432.17,663.869 1456.5,689C 1481.52,707.188 1508.19,722.855 1536.5,736C 1557.15,745.412 1578.81,749.912 1601.5,749.5C 1653.81,746.539 1704.81,736.706 1754.5,720C 1806.09,701.017 1827.42,664.184 1818.5,609.5C 1818.51,607.955 1818.84,606.622 1819.5,605.5 Z"/></g>
<g><path style="opacity:1" fill="#46454a" d="M 497.5,563.5 C 559.032,576.573 620.699,589.073 682.5,601C 693.366,603.549 704.033,606.716 714.5,610.5C 715.107,610.376 715.44,610.043 715.5,609.5C 721.833,615.167 727.833,621.167 733.5,627.5C 732.624,627.369 731.957,627.702 731.5,628.5C 733.499,630.493 734.999,632.827 736,635.5C 738.546,645.48 737.713,655.147 733.5,664.5C 723.35,678.728 710.35,689.395 694.5,696.5C 697.519,691.749 701.852,688.582 707.5,687C 713.916,681.588 720.083,675.755 726,669.5C 740.111,651.012 738.277,634.179 720.5,619C 707.822,611.659 694.155,606.659 679.5,604C 619.006,592.535 558.673,580.368 498.5,567.5C 498.567,566.041 498.234,564.708 497.5,563.5 Z"/></g>
<g><path style="opacity:1" fill="#514f55" d="M 1746.5,563.5 C 1763.29,563.038 1777.79,568.371 1790,579.5C 1804.08,599.608 1809.08,621.941 1805,646.5C 1799.39,674.454 1783.22,693.62 1756.5,704C 1729,714.627 1700.67,722.627 1671.5,728C 1652.63,729.447 1633.96,732.113 1615.5,736C 1605.17,736.667 1594.83,736.667 1584.5,736C 1571.99,734.122 1559.66,731.455 1547.5,728C 1521.48,716.159 1496.48,702.493 1472.5,687C 1468.33,681.5 1463.5,676.667 1458,672.5C 1446.39,651.46 1450.55,634.293 1470.5,621C 1477.39,617.033 1484.72,614.033 1492.5,612C 1556.54,599.025 1620.54,585.858 1684.5,572.5C 1686.17,571.177 1687.83,569.844 1689.5,568.5C 1688.68,571.461 1688.01,574.461 1687.5,577.5C 1687.17,577.5 1686.83,577.5 1686.5,577.5C 1625.61,590.112 1564.61,602.279 1503.5,614C 1490.57,617.327 1478.23,622.327 1466.5,629C 1454.21,642.846 1453.37,657.346 1464,672.5C 1473.05,682.073 1483.55,689.406 1495.5,694.5C 1498.54,697.148 1501.87,699.648 1505.5,702C 1519.5,709 1533.5,716 1547.5,723C 1575.68,733.862 1604.68,736.529 1634.5,731C 1670.19,726.13 1705.19,718.463 1739.5,708C 1793.11,692.299 1813.28,657.132 1800,602.5C 1791.15,577.158 1773.31,564.825 1746.5,565.5C 1746.5,564.833 1746.5,564.167 1746.5,563.5 Z"/></g>
<g><path style="opacity:1" fill="#7a777d" d="M 437.5,565.5 C 438.434,566.568 438.768,567.901 438.5,569.5C 431.537,571.739 424.203,573.572 416.5,575C 411.993,578.676 407.659,582.51 403.5,586.5C 393.115,606.446 390.615,627.446 396,649.5C 401.565,665.73 412.065,677.564 427.5,685C 439.064,689.188 450.73,693.188 462.5,697C 495.678,703.502 528.844,710.002 562,716.5C 583.006,718.532 603.84,717.532 624.5,713.5C 620.244,715.905 615.577,717.405 610.5,718C 603.54,718.999 596.54,719.499 589.5,719.5C 537.307,718.093 486.64,708.926 437.5,692C 428.811,687.323 420.144,682.656 411.5,678C 397.002,665.499 390.335,649.666 391.5,630.5C 390.693,615.984 393.527,602.318 400,589.5C 403.572,581.595 409.405,576.095 417.5,573C 423.964,570.724 430.63,569.224 437.5,568.5C 437.5,567.5 437.5,566.5 437.5,565.5 Z"/></g>
<g><path style="opacity:1" fill="#fefefe" d="M 848.5,936.5 C 848.5,946.167 848.5,955.833 848.5,965.5C 845.287,965.19 842.287,965.523 839.5,966.5C 806.498,967.856 773.498,967.69 740.5,966C 729.864,966.264 724.031,961.097 723,950.5C 719.483,928.072 720.15,905.739 725,883.5C 722.79,843.05 731.79,805.384 752,770.5C 762.575,756.26 775.408,744.427 790.5,735C 851.724,698.26 918.058,676.927 989.5,671C 1082.73,663.406 1175.4,667.74 1267.5,684C 1309.98,690.714 1349.98,704.38 1387.5,725C 1405.28,737.782 1422.78,750.949 1440,764.5C 1441.63,767.632 1443.47,770.632 1445.5,773.5C 1441.89,774.547 1438.22,775.38 1434.5,776C 1394.51,777.464 1354.51,777.797 1314.5,777C 1298.51,770.006 1282.51,763.006 1266.5,756C 1220.04,739.074 1172.04,729.741 1122.5,728C 1054.74,724.42 989.072,734.42 925.5,758C 919.178,760.826 913.178,764.159 907.5,768C 892.699,781.133 878.199,794.633 864,808.5C 858.106,816.624 854.106,825.624 852,835.5C 849.27,850.735 847.27,866.068 846,881.5C 846.168,899.852 847.001,918.185 848.5,936.5 Z"/></g>
<g><path style="opacity:1" fill="#504e53" d="M 435.5,557.5 C 435.5,558.167 435.5,558.833 435.5,559.5C 423.556,560.927 412.556,565.26 402.5,572.5C 395.077,579.006 389.91,587.006 387,596.5C 380.075,620.024 381.408,643.024 391,665.5C 397.167,675.667 405.333,683.833 415.5,690C 422.379,693.606 429.379,696.939 436.5,700C 481.672,714.301 528.006,723.635 575.5,728C 604.929,730.449 632.262,724.116 657.5,709C 664.315,708.305 670.315,705.805 675.5,701.5C 689.832,695.496 703.165,687.663 715.5,678C 720.461,672.553 725.294,667.053 730,661.5C 735.14,650.468 734.306,639.968 727.5,630C 723.026,627.258 718.693,624.258 714.5,621C 705.357,616.617 696.023,612.617 686.5,609C 625.445,597.022 564.445,584.856 503.5,572.5C 503.5,571.5 503.5,570.5 503.5,569.5C 501.708,569.634 500.042,569.301 498.5,568.5C 498.5,568.167 498.5,567.833 498.5,567.5C 558.673,580.368 619.006,592.535 679.5,604C 694.155,606.659 707.822,611.659 720.5,619C 738.277,634.179 740.111,651.012 726,669.5C 720.083,675.755 713.916,681.588 707.5,687C 701.852,688.582 697.519,691.749 694.5,696.5C 693.127,696.343 691.793,696.51 690.5,697C 688.308,698.067 686.642,699.567 685.5,701.5C 681.9,702.62 678.233,703.787 674.5,705C 666.687,710.411 658.353,715.078 649.5,719C 640.196,721.484 631.196,724.817 622.5,729C 596.266,734.573 569.932,734.907 543.5,730C 506.373,724.635 470.039,715.968 434.5,704C 391.694,688.598 373.194,658.098 379,612.5C 380.45,592.085 389.284,575.918 405.5,564C 414.878,559.121 424.878,556.955 435.5,557.5 Z"/></g>
<g><path style="opacity:1" fill="#6f6c72" d="M 436.5,562.5 C 437.404,563.209 437.737,564.209 437.5,565.5C 437.5,566.5 437.5,567.5 437.5,568.5C 430.63,569.224 423.964,570.724 417.5,573C 409.405,576.095 403.572,581.595 400,589.5C 393.527,602.318 390.693,615.984 391.5,630.5C 390.335,649.666 397.002,665.499 411.5,678C 420.144,682.656 428.811,687.323 437.5,692C 486.64,708.926 537.307,718.093 589.5,719.5C 596.54,719.499 603.54,718.999 610.5,718C 615.577,717.405 620.244,715.905 624.5,713.5C 645.978,704.392 666.978,694.225 687.5,683C 690.996,678.755 695.33,675.755 700.5,674C 701.872,672.758 702.872,671.258 703.5,669.5C 708.744,666.757 713.244,663.091 717,658.5C 718.989,654.747 719.822,650.747 719.5,646.5C 719.737,645.209 719.404,644.209 718.5,643.5C 718.795,640.266 718.129,637.266 716.5,634.5C 712.639,631.472 708.639,628.639 704.5,626C 694.283,624.091 684.283,621.424 674.5,618C 636.752,610.317 598.919,603.15 561,596.5C 544.04,593.307 527.206,589.474 510.5,585C 507.854,584.503 505.187,584.336 502.5,584.5C 501.833,582.167 501.167,579.833 500.5,577.5C 543.109,586.389 585.776,595.222 628.5,604C 629.776,605.212 631.276,606.045 633,606.5C 655.479,610.529 677.813,615.196 700,620.5C 704.966,623.399 710.132,625.899 715.5,628C 727.798,640.029 728.631,652.862 718,666.5C 714.877,670.462 711.043,673.462 706.5,675.5C 705.376,676.914 704.376,678.414 703.5,680C 693.5,685.333 683.5,690.667 673.5,696C 660.195,701.15 647.528,707.484 635.5,715C 620.135,722.139 603.969,725.306 587,724.5C 577.309,724.19 567.642,723.524 558,722.5C 539.663,718.638 521.163,715.805 502.5,714C 491.149,711.027 479.816,707.861 468.5,704.5C 463.929,703.199 459.262,702.533 454.5,702.5C 454.5,701.5 454.5,700.5 454.5,699.5C 450.905,699.024 447.572,697.858 444.5,696C 440.833,695.667 437.167,695.333 433.5,695C 426.274,690.22 418.608,686.22 410.5,683C 402.801,676.775 396.635,669.275 392,660.5C 386.214,635.65 387.548,611.317 396,587.5C 399.2,584.957 401.7,581.791 403.5,578C 406.757,574.661 410.423,571.828 414.5,569.5C 421.659,567.21 428.992,565.877 436.5,565.5C 436.5,564.5 436.5,563.5 436.5,562.5 Z"/></g>
<g><path style="opacity:1" fill="#5f5c62" d="M 435.5,559.5 C 436.404,560.209 436.737,561.209 436.5,562.5C 436.5,563.5 436.5,564.5 436.5,565.5C 428.992,565.877 421.659,567.21 414.5,569.5C 410.423,571.828 406.757,574.661 403.5,578C 401.7,581.791 399.2,584.957 396,587.5C 387.548,611.317 386.214,635.65 392,660.5C 396.635,669.275 402.801,676.775 410.5,683C 418.608,686.22 426.274,690.22 433.5,695C 437.167,695.333 440.833,695.667 444.5,696C 447.572,697.858 450.905,699.024 454.5,699.5C 454.5,700.5 454.5,701.5 454.5,702.5C 459.262,702.533 463.929,703.199 468.5,704.5C 479.816,707.861 491.149,711.027 502.5,714C 521.163,715.805 539.663,718.638 558,722.5C 567.642,723.524 577.309,724.19 587,724.5C 603.969,725.306 620.135,722.139 635.5,715C 647.528,707.484 660.195,701.15 673.5,696C 683.5,690.667 693.5,685.333 703.5,680C 704.376,678.414 705.376,676.914 706.5,675.5C 711.043,673.462 714.877,670.462 718,666.5C 728.631,652.862 727.798,640.029 715.5,628C 710.132,625.899 704.966,623.399 700,620.5C 677.813,615.196 655.479,610.529 633,606.5C 631.276,606.045 629.776,605.212 628.5,604C 585.776,595.222 543.109,586.389 500.5,577.5C 500.244,574.402 499.578,571.402 498.5,568.5C 500.042,569.301 501.708,569.634 503.5,569.5C 503.5,570.5 503.5,571.5 503.5,572.5C 564.445,584.856 625.445,597.022 686.5,609C 696.023,612.617 705.357,616.617 714.5,621C 718.693,624.258 723.026,627.258 727.5,630C 734.306,639.968 735.14,650.468 730,661.5C 725.294,667.053 720.461,672.553 715.5,678C 703.165,687.663 689.832,695.496 675.5,701.5C 670.315,705.805 664.315,708.305 657.5,709C 632.262,724.116 604.929,730.449 575.5,728C 528.006,723.635 481.672,714.301 436.5,700C 429.379,696.939 422.379,693.606 415.5,690C 405.333,683.833 397.167,675.667 391,665.5C 381.408,643.024 380.075,620.024 387,596.5C 389.91,587.006 395.077,579.006 402.5,572.5C 412.556,565.26 423.556,560.927 435.5,559.5 Z"/></g>
<g><path style="opacity:1" fill="#9b999d" d="M 441.5,576.5 C 442.906,576.973 443.573,577.973 443.5,579.5C 440.663,581.402 437.329,582.069 433.5,581.5C 419.831,579.575 411.331,585.242 408,598.5C 406.261,614.797 405.594,631.13 406,647.5C 407.167,652.182 409,656.516 411.5,660.5C 411.539,661.583 411.873,662.583 412.5,663.5C 416.353,666.519 419.687,670.019 422.5,674C 426.593,676.145 430.593,678.479 434.5,681C 444.674,682.024 454.34,684.691 463.5,689C 473.791,691.823 484.124,694.489 494.5,697C 520.13,701.09 545.797,705.09 571.5,709C 582.833,709.667 594.167,709.667 605.5,709C 614.786,707.264 623.786,704.764 632.5,701.5C 627.899,703.333 623.733,705.999 620,709.5C 604.39,713.306 588.557,714.472 572.5,713C 549.573,710.401 526.907,706.734 504.5,702C 486.894,696.098 468.894,691.431 450.5,688C 443.799,684.905 436.799,682.571 429.5,681C 426.79,677.978 423.456,675.978 419.5,675C 405.243,664.651 398.243,650.484 398.5,632.5C 398.941,621.754 400.108,611.087 402,600.5C 403.306,596.554 405.139,592.888 407.5,589.5C 411.995,586.501 415.995,583.001 419.5,579C 426.963,578.03 434.296,577.196 441.5,576.5 Z"/></g>
<g><path style="opacity:1" fill="#8c8a8f" d="M 438.5,569.5 C 440.065,571.509 441.065,573.843 441.5,576.5C 434.296,577.196 426.963,578.03 419.5,579C 415.995,583.001 411.995,586.501 407.5,589.5C 405.139,592.888 403.306,596.554 402,600.5C 400.108,611.087 398.941,621.754 398.5,632.5C 398.243,650.484 405.243,664.651 419.5,675C 423.456,675.978 426.79,677.978 429.5,681C 436.799,682.571 443.799,684.905 450.5,688C 468.894,691.431 486.894,696.098 504.5,702C 526.907,706.734 549.573,710.401 572.5,713C 588.557,714.472 604.39,713.306 620,709.5C 623.733,705.999 627.899,703.333 632.5,701.5C 635.177,699.54 638.177,698.04 641.5,697C 645.043,693.302 649.376,690.802 654.5,689.5C 656.683,687.15 659.016,684.983 661.5,683C 675.53,675.656 689.197,667.823 702.5,659.5C 703.386,658.675 703.719,657.675 703.5,656.5C 705.973,656.912 707.306,655.912 707.5,653.5C 711.528,651.155 715.528,648.822 719.5,646.5C 719.822,650.747 718.989,654.747 717,658.5C 713.244,663.091 708.744,666.757 703.5,669.5C 702.872,671.258 701.872,672.758 700.5,674C 695.33,675.755 690.996,678.755 687.5,683C 666.978,694.225 645.978,704.392 624.5,713.5C 603.84,717.532 583.006,718.532 562,716.5C 528.844,710.002 495.678,703.502 462.5,697C 450.73,693.188 439.064,689.188 427.5,685C 412.065,677.564 401.565,665.73 396,649.5C 390.615,627.446 393.115,606.446 403.5,586.5C 407.659,582.51 411.993,578.676 416.5,575C 424.203,573.572 431.537,571.739 438.5,569.5 Z"/></g>
<g><path style="opacity:1" fill="#98959a" d="M 445.5,571.5 C 446.434,572.568 446.768,573.901 446.5,575.5C 461.374,579.468 476.374,582.968 491.5,586C 494.336,588.422 497.336,588.922 500.5,587.5C 501.222,587.918 501.722,588.584 502,589.5C 502.399,589.272 502.565,588.938 502.5,588.5C 533.716,595.302 565.05,601.802 596.5,608C 598.291,608.415 599.624,609.415 600.5,611C 630.897,616.613 661.231,622.613 691.5,629C 695.84,630.679 700.173,632.346 704.5,634C 707.393,636.084 709.726,638.584 711.5,641.5C 710.167,641.167 708.833,640.833 707.5,640.5C 706.71,639.206 705.71,638.039 704.5,637C 678.894,631.279 653.227,625.946 627.5,621C 615.082,616.863 602.415,613.53 589.5,611C 576.515,608.67 563.515,606.337 550.5,604C 521.306,597.839 492.306,591.172 463.5,584C 457.849,582.984 452.182,582.15 446.5,581.5C 446.784,579.585 446.451,577.919 445.5,576.5C 445.5,574.833 445.5,573.167 445.5,571.5 Z"/></g>
<g><path style="opacity:1" fill="#88868b" d="M 502.5,584.5 C 505.187,584.336 507.854,584.503 510.5,585C 527.206,589.474 544.04,593.307 561,596.5C 598.919,603.15 636.752,610.317 674.5,618C 684.283,621.424 694.283,624.091 704.5,626C 708.639,628.639 712.639,631.472 716.5,634.5C 718.129,637.266 718.795,640.266 718.5,643.5C 716.167,642.833 713.833,642.167 711.5,641.5C 709.726,638.584 707.393,636.084 704.5,634C 700.173,632.346 695.84,630.679 691.5,629C 661.231,622.613 630.897,616.613 600.5,611C 599.624,609.415 598.291,608.415 596.5,608C 565.05,601.802 533.716,595.302 502.5,588.5C 502.5,587.167 502.5,585.833 502.5,584.5 Z"/></g>
<g><path style="opacity:1" fill="#a5a2a6" d="M 446.5,581.5 C 452.182,582.15 457.849,582.984 463.5,584C 492.306,591.172 521.306,597.839 550.5,604C 563.515,606.337 576.515,608.67 589.5,611C 602.415,613.53 615.082,616.863 627.5,621C 653.227,625.946 678.894,631.279 704.5,637C 705.71,638.039 706.71,639.206 707.5,640.5C 680.793,635.161 654.127,629.828 627.5,624.5C 625.91,622.766 623.91,621.6 621.5,621C 567.149,609.13 512.816,597.13 458.5,585C 454.5,584.667 450.5,584.333 446.5,584C 445.402,583.23 445.402,582.397 446.5,581.5 Z"/></g>
<g><path style="opacity:1" fill="#b1aeb2" d="M 445.5,576.5 C 446.451,577.919 446.784,579.585 446.5,581.5C 445.402,582.397 445.402,583.23 446.5,584C 450.5,584.333 454.5,584.667 458.5,585C 512.816,597.13 567.149,609.13 621.5,621C 623.91,621.6 625.91,622.766 627.5,624.5C 578.778,614.989 530.112,605.156 481.5,595C 465.294,590.785 449.294,586.285 433.5,581.5C 437.329,582.069 440.663,581.402 443.5,579.5C 444.117,579.611 444.617,579.944 445,580.5C 445.49,579.207 445.657,577.873 445.5,576.5 Z"/></g>
<g><path style="opacity:1" fill="#fefefe" d="M 433.5,581.5 C 449.294,586.285 465.294,590.785 481.5,595C 530.112,605.156 578.778,614.989 627.5,624.5C 654.127,629.828 680.793,635.161 707.5,640.5C 708.833,640.833 710.167,641.167 711.5,641.5C 713.833,642.167 716.167,642.833 718.5,643.5C 719.404,644.209 719.737,645.209 719.5,646.5C 715.528,648.822 711.528,651.155 707.5,653.5C 677.724,669.437 648.057,685.604 618.5,702C 610.069,704.873 601.402,706.04 592.5,705.5C 538.84,701.601 486.506,691.101 435.5,674C 426.695,670.768 418.695,666.268 411.5,660.5C 409,656.516 407.167,652.182 406,647.5C 405.594,631.13 406.261,614.797 408,598.5C 411.331,585.242 419.831,579.575 433.5,581.5 Z"/></g>
<g><path style="opacity:1" fill="#d6d4d7" d="M 532.5,643.5 C 536.794,643.577 540.961,644.244 545,645.5C 546.416,650.412 547.249,655.412 547.5,660.5C 543.772,660.156 540.105,659.49 536.5,658.5C 535.008,653.531 533.675,648.531 532.5,643.5 Z"/></g>
<g><path style="opacity:1" fill="#d3d1d4" d="M 555.5,647.5 C 559.167,647.5 562.833,647.5 566.5,647.5C 567.183,651.565 568.183,655.565 569.5,659.5C 568.318,661.923 566.318,662.923 563.5,662.5C 561.307,662.674 559.473,662.007 558,660.5C 556.588,656.272 555.754,651.939 555.5,647.5 Z"/></g>
<g><path style="opacity:1" fill="#c2c0c4" d="M 615.5,631.5 C 620.887,631.473 626.053,632.473 631,634.5C 634.936,646.808 638.77,659.142 642.5,671.5C 641.667,671.833 640.833,672.167 640,672.5C 635.788,672.142 631.788,671.142 628,669.5C 623.216,657.028 619.049,644.362 615.5,631.5 Z"/></g>
<g><path style="opacity:1" fill="#c3c1c4" d="M 638.5,634.5 C 643.399,635.313 648.232,636.313 653,637.5C 657.356,647.389 660.523,657.389 662.5,667.5C 659.167,669.167 655.833,670.833 652.5,672.5C 647.636,659.907 642.969,647.241 638.5,634.5 Z"/></g>
<g><path style="opacity:1" fill="#c3c1c4" d="M 670.5,640.5 C 673.674,640.664 676.507,641.664 679,643.5C 682.159,647.641 683.659,652.141 683.5,657C 680.006,658.579 676.673,660.413 673.5,662.5C 670.401,655.701 667.401,648.867 664.5,642C 666.708,641.809 668.708,641.309 670.5,640.5 Z"/></g>
<g><path style="opacity:1" fill="#cdcccf" d="M 582.5,641.5 C 583.833,641.5 585.167,641.5 586.5,641.5C 588.914,649.74 590.914,658.073 592.5,666.5C 586.846,666.609 581.679,665.275 577,662.5C 574.964,656.988 573.964,651.322 574,645.5C 577.201,644.815 580.035,643.481 582.5,641.5 Z"/></g>
<g><path style="opacity:1" fill="#d5d4d7" d="M 512.5,640.5 C 516.437,640.207 520.27,640.54 524,641.5C 525.841,646.153 526.675,650.819 526.5,655.5C 522.738,657.09 519.238,656.757 516,654.5C 514.087,650.022 512.92,645.355 512.5,640.5 Z"/></g>
<g><path style="opacity:1" fill="#d5d4d7" d="M 493.5,637.5 C 497.909,636.618 501.409,637.952 504,641.5C 505.477,645.409 506.644,649.409 507.5,653.5C 506.833,653.833 506.167,654.167 505.5,654.5C 502.265,653.969 499.098,653.302 496,652.5C 494.921,647.532 494.088,642.532 493.5,637.5 Z"/></g>
<g><path style="opacity:1" fill="#d3d2d5" d="M 472.5,634.5 C 476.833,634.5 481.167,634.5 485.5,634.5C 486.592,639.476 487.592,644.476 488.5,649.5C 484.285,650.798 480.118,650.798 476,649.5C 474.986,644.446 473.819,639.446 472.5,634.5 Z"/></g>
<g><path style="opacity:1" fill="#c7c5c9" d="M 604.5,631.5 C 606.474,633.428 607.974,635.761 609,638.5C 612.35,648.379 615.183,658.379 617.5,668.5C 612.5,668.5 607.5,668.5 602.5,668.5C 600.41,658.328 597.743,648.328 594.5,638.5C 597.862,636.157 601.196,633.824 604.5,631.5 Z"/></g>
<g><path style="opacity:1" fill="#cecdd0" d="M 447.5,608.5 C 451.603,607.769 455.103,608.769 458,611.5C 461.656,623.126 465.156,634.793 468.5,646.5C 464.535,647.367 460.535,647.367 456.5,646.5C 453.498,633.824 450.498,621.157 447.5,608.5 Z"/></g>
<g><path style="opacity:1" fill="#cfced1" d="M 428.5,590.5 C 431.167,590.5 433.833,590.5 436.5,590.5C 440.101,607.739 444.101,624.906 448.5,642C 447.326,646.001 445.16,646.501 442,643.5C 436.647,626.043 432.147,608.376 428.5,590.5 Z"/></g>
<g><path style="opacity:1" fill="#828085" d="M 445.5,569.5 C 461.525,572.168 477.525,575.502 493.5,579.5C 495.03,579.36 496.03,578.693 496.5,577.5C 498.346,580.54 499.679,583.873 500.5,587.5C 497.336,588.922 494.336,588.422 491.5,586C 476.374,582.968 461.374,579.468 446.5,575.5C 446.768,573.901 446.434,572.568 445.5,571.5C 445.5,570.833 445.5,570.167 445.5,569.5 Z"/></g>
<g><path style="opacity:1" fill="#aba8ac" d="M 707.5,653.5 C 707.306,655.912 705.973,656.912 703.5,656.5C 703.719,657.675 703.386,658.675 702.5,659.5C 689.197,667.823 675.53,675.656 661.5,683C 659.016,684.983 656.683,687.15 654.5,689.5C 649.376,690.802 645.043,693.302 641.5,697C 638.177,698.04 635.177,699.54 632.5,701.5C 623.786,704.764 614.786,707.264 605.5,709C 594.167,709.667 582.833,709.667 571.5,709C 545.797,705.09 520.13,701.09 494.5,697C 484.124,694.489 473.791,691.823 463.5,689C 454.34,684.691 444.674,682.024 434.5,681C 430.593,678.479 426.593,676.145 422.5,674C 419.687,670.019 416.353,666.519 412.5,663.5C 411.873,662.583 411.539,661.583 411.5,660.5C 418.695,666.268 426.695,670.768 435.5,674C 486.506,691.101 538.84,701.601 592.5,705.5C 601.402,706.04 610.069,704.873 618.5,702C 648.057,685.604 677.724,669.437 707.5,653.5 Z"/></g>
<g><path style="opacity:1" fill="#5c595f" d="M 1746.5,565.5 C 1773.31,564.825 1791.15,577.158 1800,602.5C 1813.28,657.132 1793.11,692.299 1739.5,708C 1705.19,718.463 1670.19,726.13 1634.5,731C 1604.68,736.529 1575.68,733.862 1547.5,723C 1533.5,716 1519.5,709 1505.5,702C 1501.87,699.648 1498.54,697.148 1495.5,694.5C 1497.82,695.16 1500.15,695.827 1502.5,696.5C 1510.25,699.875 1517.58,704.042 1524.5,709C 1527.17,709.667 1529.83,710.333 1532.5,711C 1543.3,716.449 1554.3,721.449 1565.5,726C 1588.65,730.772 1611.98,731.772 1635.5,729C 1655.32,726.102 1674.99,722.435 1694.5,718C 1708.41,714.021 1722.41,710.355 1736.5,707C 1750.73,702.925 1764.07,696.925 1776.5,689C 1799.87,667.414 1807.7,640.914 1800,609.5C 1795.56,587.071 1782.4,573.237 1760.5,568C 1755.85,567.501 1751.18,567.334 1746.5,567.5C 1746.5,566.833 1746.5,566.167 1746.5,565.5 Z"/></g>
<g><path style="opacity:1" fill="#48464b" d="M 434.5,553.5 C 435.434,554.568 435.768,555.901 435.5,557.5C 424.878,556.955 414.878,559.121 405.5,564C 389.284,575.918 380.45,592.085 379,612.5C 373.194,658.098 391.694,688.598 434.5,704C 470.039,715.968 506.373,724.635 543.5,730C 569.932,734.907 596.266,734.573 622.5,729C 631.196,724.817 640.196,721.484 649.5,719C 658.353,715.078 666.687,710.411 674.5,705C 678.233,703.787 681.9,702.62 685.5,701.5C 671.206,710.199 656.206,718.032 640.5,725C 622.607,731.652 604.107,735.152 585,735.5C 533.422,732.451 483.255,722.617 434.5,706C 390.559,690.315 371.392,659.149 377,612.5C 380.601,577.402 399.767,557.735 434.5,553.5 Z"/></g>
<g><path style="opacity:1" fill="#716e74" d="M 1746.5,561.5 C 1746.5,562.167 1746.5,562.833 1746.5,563.5C 1746.5,564.167 1746.5,564.833 1746.5,565.5C 1746.5,566.167 1746.5,566.833 1746.5,567.5C 1746.79,568.649 1747.62,569.316 1749,569.5C 1753.14,570.164 1757.31,570.664 1761.5,571C 1759.5,571.333 1757.5,571.667 1755.5,572C 1773.37,572.854 1786.2,581.354 1794,597.5C 1800.44,617.363 1801.11,637.363 1796,657.5C 1792.4,665.872 1787.9,673.706 1782.5,681C 1776.5,685 1770.5,689 1764.5,693C 1717.08,709.355 1668.41,720.688 1618.5,727C 1602.76,727.953 1587.1,727.287 1571.5,725C 1558.25,720.369 1545.25,715.202 1532.5,709.5C 1517.3,700.732 1501.96,692.232 1486.5,684C 1479.67,678.842 1473.17,673.342 1467,667.5C 1463.88,659.421 1462.88,651.087 1464,642.5C 1465.7,640.301 1467.2,637.968 1468.5,635.5C 1480.32,627.718 1493.32,622.552 1507.5,620C 1566.89,608.356 1626.22,596.522 1685.5,584.5C 1685.5,584.833 1685.5,585.167 1685.5,585.5C 1623.4,599.02 1561.07,611.854 1498.5,624C 1493.8,626.429 1488.8,628.095 1483.5,629C 1480.52,631.826 1477.18,634.159 1473.5,636C 1469.32,638.705 1467.32,642.538 1467.5,647.5C 1467.5,647.833 1467.5,648.167 1467.5,648.5C 1466.52,651.287 1466.19,654.287 1466.5,657.5C 1469.35,657.809 1470.85,659.475 1471,662.5C 1477.68,668.185 1484.02,674.185 1490,680.5C 1496.15,684.106 1502.65,686.939 1509.5,689C 1512.4,692.287 1516.07,694.287 1520.5,695C 1522.61,697.227 1524.94,699.227 1527.5,701C 1532.42,702.461 1537.09,704.461 1541.5,707C 1544.93,710.418 1548.93,713.084 1553.5,715C 1573.94,723.723 1595.28,726.723 1617.5,724C 1642.89,720.158 1668.22,715.991 1693.5,711.5C 1705.18,709.355 1716.52,706.022 1727.5,701.5C 1734.88,699.429 1742.21,697.262 1749.5,695C 1755.9,691.134 1762.56,687.801 1769.5,685C 1775.77,679.661 1781.93,674.161 1788,668.5C 1795.44,647.152 1796.44,625.485 1791,603.5C 1782.83,582.829 1767.66,573.496 1745.5,575.5C 1745.5,574.167 1745.5,572.833 1745.5,571.5C 1745.19,567.958 1745.52,564.625 1746.5,561.5 Z"/></g>
<g><path style="opacity:1" fill="#4a484d" d="M 1746.5,559.5 C 1782.22,559.463 1803.06,577.13 1809,612.5C 1809.67,624.5 1809.67,636.5 1809,648.5C 1807.81,655.405 1805.81,662.071 1803,668.5C 1795.18,685.834 1782.35,697.167 1764.5,702.5C 1764.64,704.124 1763.97,705.29 1762.5,706C 1716.52,722.465 1669.19,733.465 1620.5,739C 1603.75,740.097 1587.08,739.43 1570.5,737C 1560.49,733.455 1550.49,730.122 1540.5,727C 1524.26,719.212 1508.26,710.879 1492.5,702C 1479.95,695.308 1468.78,686.808 1459,676.5C 1448.57,663.621 1446.74,649.621 1453.5,634.5C 1453.38,633.893 1453.04,633.56 1452.5,633.5C 1458.5,626.833 1464.83,620.5 1471.5,614.5C 1483.14,610.087 1495.14,606.587 1507.5,604C 1568.3,592.407 1628.97,580.24 1689.5,567.5C 1689.5,567.833 1689.5,568.167 1689.5,568.5C 1687.83,569.844 1686.17,571.177 1684.5,572.5C 1620.54,585.858 1556.54,599.025 1492.5,612C 1484.72,614.033 1477.39,617.033 1470.5,621C 1450.55,634.293 1446.39,651.46 1458,672.5C 1463.5,676.667 1468.33,681.5 1472.5,687C 1496.48,702.493 1521.48,716.159 1547.5,728C 1559.66,731.455 1571.99,734.122 1584.5,736C 1594.83,736.667 1605.17,736.667 1615.5,736C 1633.96,732.113 1652.63,729.447 1671.5,728C 1700.67,722.627 1729,714.627 1756.5,704C 1783.22,693.62 1799.39,674.454 1805,646.5C 1809.08,621.941 1804.08,599.608 1790,579.5C 1777.79,568.371 1763.29,563.038 1746.5,563.5C 1746.5,562.833 1746.5,562.167 1746.5,561.5C 1746.5,560.833 1746.5,560.167 1746.5,559.5 Z"/></g>
<g><path style="opacity:1" fill="#7f7d82" d="M 1745.5,571.5 C 1745.5,572.833 1745.5,574.167 1745.5,575.5C 1767.66,573.496 1782.83,582.829 1791,603.5C 1796.44,625.485 1795.44,647.152 1788,668.5C 1781.93,674.161 1775.77,679.661 1769.5,685C 1762.56,687.801 1755.9,691.134 1749.5,695C 1742.21,697.262 1734.88,699.429 1727.5,701.5C 1716.52,706.022 1705.18,709.355 1693.5,711.5C 1668.22,715.991 1642.89,720.158 1617.5,724C 1595.28,726.723 1573.94,723.723 1553.5,715C 1548.93,713.084 1544.93,710.418 1541.5,707C 1537.09,704.461 1532.42,702.461 1527.5,701C 1524.94,699.227 1522.61,697.227 1520.5,695C 1516.07,694.287 1512.4,692.287 1509.5,689C 1502.65,686.939 1496.15,684.106 1490,680.5C 1484.02,674.185 1477.68,668.185 1471,662.5C 1470.85,659.475 1469.35,657.809 1466.5,657.5C 1466.19,654.287 1466.52,651.287 1467.5,648.5C 1467.77,650.981 1469.11,652.647 1471.5,653.5C 1471.68,656.216 1472.18,658.883 1473,661.5C 1478.52,669.025 1485.68,674.191 1494.5,677C 1498.14,679.309 1501.47,681.976 1504.5,685C 1509.61,687.889 1514.94,690.222 1520.5,692C 1524.16,695.661 1528.49,697.995 1533.5,699C 1536.01,700.421 1538.34,702.088 1540.5,704C 1545.53,706.856 1550.87,709.023 1556.5,710.5C 1556.41,711.496 1556.75,712.329 1557.5,713C 1575.94,719.512 1594.94,721.678 1614.5,719.5C 1655.96,713.908 1696.96,706.075 1737.5,696C 1749.37,691.226 1761.03,686.226 1772.5,681C 1782.32,671.828 1788.82,660.662 1792,647.5C 1793.05,631.255 1791.72,615.255 1788,599.5C 1782.28,590.615 1774.78,583.615 1765.5,578.5C 1758.56,577.536 1751.56,577.203 1744.5,577.5C 1744.21,575.265 1744.54,573.265 1745.5,571.5 Z"/></g>
<g><path style="opacity:1" fill="#666369" d="M 1746.5,567.5 C 1751.18,567.334 1755.85,567.501 1760.5,568C 1782.4,573.237 1795.56,587.071 1800,609.5C 1807.7,640.914 1799.87,667.414 1776.5,689C 1764.07,696.925 1750.73,702.925 1736.5,707C 1722.41,710.355 1708.41,714.021 1694.5,718C 1674.99,722.435 1655.32,726.102 1635.5,729C 1611.98,731.772 1588.65,730.772 1565.5,726C 1554.3,721.449 1543.3,716.449 1532.5,711C 1529.83,710.333 1527.17,709.667 1524.5,709C 1517.58,704.042 1510.25,699.875 1502.5,696.5C 1500.15,695.827 1497.82,695.16 1495.5,694.5C 1495.63,693.624 1495.3,692.957 1494.5,692.5C 1481.82,686.996 1471.32,678.663 1463,667.5C 1458.62,657.856 1458.46,648.189 1462.5,638.5C 1466.69,635.148 1470.35,631.314 1473.5,627C 1479.68,623.877 1486.02,621.21 1492.5,619C 1537.85,608.731 1583.51,599.731 1629.5,592C 1647.95,587.143 1666.61,582.976 1685.5,579.5C 1685.86,578.817 1686.2,578.15 1686.5,577.5C 1686.83,577.5 1687.17,577.5 1687.5,577.5C 1686.54,579.746 1685.88,582.079 1685.5,584.5C 1626.22,596.522 1566.89,608.356 1507.5,620C 1493.32,622.552 1480.32,627.718 1468.5,635.5C 1467.2,637.968 1465.7,640.301 1464,642.5C 1462.88,651.087 1463.88,659.421 1467,667.5C 1473.17,673.342 1479.67,678.842 1486.5,684C 1501.96,692.232 1517.3,700.732 1532.5,709.5C 1545.25,715.202 1558.25,720.369 1571.5,725C 1587.1,727.287 1602.76,727.953 1618.5,727C 1668.41,720.688 1717.08,709.355 1764.5,693C 1770.5,689 1776.5,685 1782.5,681C 1787.9,673.706 1792.4,665.872 1796,657.5C 1801.11,637.363 1800.44,617.363 1794,597.5C 1786.2,581.354 1773.37,572.854 1755.5,572C 1757.5,571.667 1759.5,571.333 1761.5,571C 1757.31,570.664 1753.14,570.164 1749,569.5C 1747.62,569.316 1746.79,568.649 1746.5,567.5 Z"/></g>
<g><path style="opacity:1" fill="#908d92" d="M 1744.5,577.5 C 1751.56,577.203 1758.56,577.536 1765.5,578.5C 1774.78,583.615 1782.28,590.615 1788,599.5C 1791.72,615.255 1793.05,631.255 1792,647.5C 1788.82,660.662 1782.32,671.828 1772.5,681C 1761.03,686.226 1749.37,691.226 1737.5,696C 1696.96,706.075 1655.96,713.908 1614.5,719.5C 1594.94,721.678 1575.94,719.512 1557.5,713C 1556.75,712.329 1556.41,711.496 1556.5,710.5C 1563.24,712.365 1569.91,714.532 1576.5,717C 1600.97,718.156 1625.3,716.822 1649.5,713C 1676.11,708.097 1702.44,702.097 1728.5,695C 1740.74,691.873 1751.74,686.706 1761.5,679.5C 1764.12,678.52 1766.45,677.02 1768.5,675C 1771.01,671.79 1773.84,668.957 1777,666.5C 1778.17,662.663 1780.17,659.329 1783,656.5C 1787.09,636.506 1786.09,616.839 1780,597.5C 1777.5,594.704 1775,591.871 1772.5,589C 1771.26,588.209 1769.92,587.709 1768.5,587.5C 1766.5,587.167 1764.5,586.833 1762.5,586.5C 1756.33,585.602 1750,584.936 1743.5,584.5C 1743.5,583.5 1743.5,582.5 1743.5,581.5C 1743.23,579.901 1743.57,578.568 1744.5,577.5 Z"/></g>
<g><path style="opacity:1" fill="#aaa7ab" d="M 1768.5,587.5 C 1769.92,587.709 1771.26,588.209 1772.5,589C 1775,591.871 1777.5,594.704 1780,597.5C 1786.09,616.839 1787.09,636.506 1783,656.5C 1780.17,659.329 1778.17,662.663 1777,666.5C 1773.84,668.957 1771.01,671.79 1768.5,675C 1766.45,677.02 1764.12,678.52 1761.5,679.5C 1738.91,689.635 1715.25,696.469 1690.5,700C 1654.12,711.697 1616.79,716.03 1578.5,713C 1553.46,703.557 1530.12,691.224 1508.5,676C 1502.38,673.884 1496.71,670.884 1491.5,667C 1490.21,666.51 1488.87,666.343 1487.5,666.5C 1487.5,665.5 1487.5,664.5 1487.5,663.5C 1482.86,663.852 1479.86,661.852 1478.5,657.5C 1508.81,673.988 1539.14,690.488 1569.5,707C 1573.17,708 1576.83,709 1580.5,710C 1612.22,709.802 1643.56,706.135 1674.5,699C 1698.67,693.291 1722.67,686.958 1746.5,680C 1754.41,677.25 1762.08,673.917 1769.5,670C 1775.15,665.861 1778.65,660.361 1780,653.5C 1781.37,634.683 1780.37,616.017 1777,597.5C 1775.02,593.362 1772.19,590.029 1768.5,587.5 Z"/></g>
<g><path style="opacity:1" fill="#98959a" d="M 1471.5,653.5 C 1473.67,655.086 1476,656.42 1478.5,657.5C 1479.86,661.852 1482.86,663.852 1487.5,663.5C 1487.5,664.5 1487.5,665.5 1487.5,666.5C 1488.87,666.343 1490.21,666.51 1491.5,667C 1496.71,670.884 1502.38,673.884 1508.5,676C 1530.12,691.224 1553.46,703.557 1578.5,713C 1616.79,716.03 1654.12,711.697 1690.5,700C 1715.25,696.469 1738.91,689.635 1761.5,679.5C 1751.74,686.706 1740.74,691.873 1728.5,695C 1702.44,702.097 1676.11,708.097 1649.5,713C 1625.3,716.822 1600.97,718.156 1576.5,717C 1569.91,714.532 1563.24,712.365 1556.5,710.5C 1550.87,709.023 1545.53,706.856 1540.5,704C 1538.34,702.088 1536.01,700.421 1533.5,699C 1528.49,697.995 1524.16,695.661 1520.5,692C 1514.94,690.222 1509.61,687.889 1504.5,685C 1501.47,681.976 1498.14,679.309 1494.5,677C 1485.68,674.191 1478.52,669.025 1473,661.5C 1472.18,658.883 1471.68,656.216 1471.5,653.5 Z"/></g>
<g><path style="opacity:1" fill="#8b888d" d="M 1738.5,579.5 C 1738.5,580.5 1738.5,581.5 1738.5,582.5C 1712.98,587.438 1687.31,592.605 1661.5,598C 1656.42,599.432 1651.42,601.099 1646.5,603C 1599.1,612.813 1551.6,621.979 1504,630.5C 1494.72,633.021 1485.89,636.521 1477.5,641C 1476.03,642.774 1474.7,644.608 1473.5,646.5C 1472.04,646.433 1470.71,646.766 1469.5,647.5C 1469.49,645.692 1469.99,644.025 1471,642.5C 1477.4,637.118 1484.57,632.951 1492.5,630C 1526.56,625.554 1559.89,618.554 1592.5,609C 1631.37,601.559 1670.04,593.226 1708.5,584C 1718.56,582.822 1728.56,581.322 1738.5,579.5 Z"/></g>
<g><path style="opacity:1" fill="#9c999e" d="M 1738.5,578.5 C 1739.47,580.607 1739.8,582.941 1739.5,585.5C 1739.12,586.931 1738.12,587.764 1736.5,588C 1688.16,599.468 1639.5,609.802 1590.5,619C 1582.06,621.921 1573.39,624.254 1564.5,626C 1542.69,630.877 1520.69,634.711 1498.5,637.5C 1495.44,639.279 1492.44,640.945 1489.5,642.5C 1484.05,643.456 1478.72,644.789 1473.5,646.5C 1474.7,644.608 1476.03,642.774 1477.5,641C 1485.89,636.521 1494.72,633.021 1504,630.5C 1551.6,621.979 1599.1,612.813 1646.5,603C 1651.42,601.099 1656.42,599.432 1661.5,598C 1687.31,592.605 1712.98,587.438 1738.5,582.5C 1738.5,581.5 1738.5,580.5 1738.5,579.5C 1738.5,579.167 1738.5,578.833 1738.5,578.5 Z"/></g>
<g><path style="opacity:1" fill="#5b595e" d="M 1686.5,577.5 C 1686.2,578.15 1685.86,578.817 1685.5,579.5C 1666.61,582.976 1647.95,587.143 1629.5,592C 1583.51,599.731 1537.85,608.731 1492.5,619C 1486.02,621.21 1479.68,623.877 1473.5,627C 1470.35,631.314 1466.69,635.148 1462.5,638.5C 1458.46,648.189 1458.62,657.856 1463,667.5C 1471.32,678.663 1481.82,686.996 1494.5,692.5C 1495.3,692.957 1495.63,693.624 1495.5,694.5C 1483.55,689.406 1473.05,682.073 1464,672.5C 1453.37,657.346 1454.21,642.846 1466.5,629C 1478.23,622.327 1490.57,617.327 1503.5,614C 1564.61,602.279 1625.61,590.112 1686.5,577.5 Z"/></g>
<g><path style="opacity:1" fill="#adabaf" d="M 1743.5,581.5 C 1743.5,582.5 1743.5,583.5 1743.5,584.5C 1750,584.936 1756.33,585.602 1762.5,586.5C 1758.15,586.334 1753.82,586.501 1749.5,587C 1729.43,593.216 1709.1,598.549 1688.5,603C 1622.27,616.77 1555.94,629.937 1489.5,642.5C 1492.44,640.945 1495.44,639.279 1498.5,637.5C 1520.69,634.711 1542.69,630.877 1564.5,626C 1573.39,624.254 1582.06,621.921 1590.5,619C 1639.5,609.802 1688.16,599.468 1736.5,588C 1738.12,587.764 1739.12,586.931 1739.5,585.5C 1740.5,585.5 1741.5,585.5 1742.5,585.5C 1742.23,583.901 1742.57,582.568 1743.5,581.5 Z"/></g>
<g><path style="opacity:1" fill="#fefefe" d="M 1762.5,586.5 C 1764.5,586.833 1766.5,587.167 1768.5,587.5C 1772.19,590.029 1775.02,593.362 1777,597.5C 1780.37,616.017 1781.37,634.683 1780,653.5C 1778.65,660.361 1775.15,665.861 1769.5,670C 1762.08,673.917 1754.41,677.25 1746.5,680C 1722.67,686.958 1698.67,693.291 1674.5,699C 1643.56,706.135 1612.22,709.802 1580.5,710C 1576.83,709 1573.17,708 1569.5,707C 1539.14,690.488 1508.81,673.988 1478.5,657.5C 1476,656.42 1473.67,655.086 1471.5,653.5C 1469.11,652.647 1467.77,650.981 1467.5,648.5C 1467.5,648.167 1467.5,647.833 1467.5,647.5C 1468.17,647.5 1468.83,647.5 1469.5,647.5C 1470.71,646.766 1472.04,646.433 1473.5,646.5C 1478.72,644.789 1484.05,643.456 1489.5,642.5C 1555.94,629.937 1622.27,616.77 1688.5,603C 1709.1,598.549 1729.43,593.216 1749.5,587C 1753.82,586.501 1758.15,586.334 1762.5,586.5 Z"/></g>
<g><path style="opacity:1" fill="#d3d2d4" d="M 1620.5,651.5 C 1623.85,651.335 1627.18,651.502 1630.5,652C 1631.43,657.018 1630.43,661.685 1627.5,666C 1624.18,666.498 1620.85,666.665 1617.5,666.5C 1618.03,661.4 1619.03,656.4 1620.5,651.5 Z"/></g>
<g><path style="opacity:1" fill="#c3c1c4" d="M 1541.5,639.5 C 1543.6,639.201 1545.6,639.534 1547.5,640.5C 1543.19,652.417 1539.19,664.417 1535.5,676.5C 1533.35,676.628 1531.35,676.128 1529.5,675C 1527.03,673.784 1525.03,672.117 1523.5,670C 1526.41,660.681 1529.74,651.514 1533.5,642.5C 1536.28,641.485 1538.94,640.485 1541.5,639.5 Z"/></g>
<g><path style="opacity:1" fill="#d5d3d6" d="M 1662.5,645.5 C 1666.17,645.5 1669.83,645.5 1673.5,645.5C 1673.75,651.36 1672.08,656.527 1668.5,661C 1665.47,661.495 1662.47,661.329 1659.5,660.5C 1660.61,655.516 1661.61,650.516 1662.5,645.5 Z"/></g>
<g><path style="opacity:1" fill="#c3c1c4" d="M 1510.5,645.5 C 1514.17,645.5 1517.83,645.5 1521.5,645.5C 1519.84,653.143 1516.84,660.143 1512.5,666.5C 1508.39,665.126 1505.06,662.792 1502.5,659.5C 1503.66,653.825 1506.33,649.158 1510.5,645.5 Z"/></g>
<g><path style="opacity:1" fill="#d4d2d5" d="M 1712.5,638.5 C 1713.14,639.097 1713.47,639.93 1713.5,641C 1712.87,645.619 1711.87,650.119 1710.5,654.5C 1706.5,654.5 1702.5,654.5 1698.5,654.5C 1699.49,649.548 1700.16,644.548 1700.5,639.5C 1704.7,639.817 1708.7,639.483 1712.5,638.5 Z"/></g>
<g><path style="opacity:1" fill="#d7d5d8" d="M 1650.5,647.5 C 1651.83,647.5 1653.17,647.5 1654.5,647.5C 1653.49,652.522 1652.33,657.522 1651,662.5C 1646.84,663.445 1642.67,664.445 1638.5,665.5C 1639.5,660.167 1640.5,654.833 1641.5,649.5C 1644.73,649.324 1647.73,648.657 1650.5,647.5 Z"/></g>
<g><path style="opacity:1" fill="#cdcbce" d="M 1600.5,645.5 C 1604.77,646.87 1608.94,648.536 1613,650.5C 1611.97,656.461 1610.8,662.461 1609.5,668.5C 1604.41,669.037 1599.41,670.037 1594.5,671.5C 1594.17,671 1593.83,670.5 1593.5,670C 1596.28,661.952 1598.61,653.785 1600.5,645.5 Z"/></g>
<g><path style="opacity:1" fill="#d5d3d6" d="M 1685.5,642.5 C 1687.83,642.5 1690.17,642.5 1692.5,642.5C 1692.63,647.351 1691.8,652.018 1690,656.5C 1686.64,657.739 1683.14,658.406 1679.5,658.5C 1679.74,652.436 1681.74,647.102 1685.5,642.5 Z"/></g>
<g><path style="opacity:1" fill="#c7c5c8" d="M 1580.5,636.5 C 1584.54,638.191 1588.54,639.857 1592.5,641.5C 1589.88,651.927 1586.88,662.261 1583.5,672.5C 1578.5,673.833 1573.5,673.833 1568.5,672.5C 1571.91,660.277 1575.91,648.277 1580.5,636.5 Z"/></g>
<g><path style="opacity:1" fill="#c2c0c4" d="M 1566.5,635.5 C 1568.17,635.5 1569.83,635.5 1571.5,635.5C 1567.84,648.315 1563.67,660.982 1559,673.5C 1554.5,675.92 1549.66,676.92 1544.5,676.5C 1548.02,663.762 1551.86,651.095 1556,638.5C 1559.61,637.552 1563.11,636.552 1566.5,635.5 Z"/></g>
<g><path style="opacity:1" fill="#ceccd0" d="M 1730.5,613.5 C 1733.17,613.5 1735.83,613.5 1738.5,613.5C 1735.68,625.798 1733.01,638.131 1730.5,650.5C 1726.8,650.981 1723.13,651.648 1719.5,652.5C 1719.17,651.833 1718.83,651.167 1718.5,650.5C 1721.72,637.835 1725.72,625.502 1730.5,613.5 Z"/></g>
<g><path style="opacity:1" fill="#cfced1" d="M 1752.5,594.5 C 1754.6,594.201 1756.6,594.534 1758.5,595.5C 1754.53,612.96 1750.03,630.293 1745,647.5C 1742.42,650.128 1739.92,650.128 1737.5,647.5C 1741.98,630.911 1746.15,614.244 1750,597.5C 1750.7,596.309 1751.53,595.309 1752.5,594.5 Z"/></g>
<g><path style="opacity:1" fill="#fdfdfd" d="M 434.5,789.5 C 517.517,788.943 600.517,789.777 683.5,792C 688.146,792.326 692.479,793.66 696.5,796C 697.894,796.956 698.561,798.289 698.5,800C 695.734,815.227 692.734,830.394 689.5,845.5C 688.5,846.333 687.5,847.167 686.5,848C 639.213,849.48 591.88,849.98 544.5,849.5C 551.624,876.372 561.791,902.039 575,926.5C 587.185,941.002 602.351,951.168 620.5,957C 668.621,972.557 717.955,981.557 768.5,984C 900.664,982.517 1032.83,982.017 1165,982.5C 1209.86,982.271 1254.69,982.937 1299.5,984.5C 1301.41,1001.24 1298.91,1017.24 1292,1032.5C 1289.53,1036.6 1286.7,1040.43 1283.5,1044C 1112.83,1044.29 942.161,1043.95 771.5,1043C 714.176,1042.33 657.51,1036 601.5,1024C 536.762,1011.07 483.262,979.567 441,929.5C 422.402,902.69 415.069,873.023 419,840.5C 419.925,830.852 420.592,821.185 421,811.5C 423.005,804.651 425.505,797.984 428.5,791.5C 430.631,790.831 432.631,790.165 434.5,789.5 Z"/></g>
<g><path style="opacity:1" fill="#fefefe" d="M 1506.5,1040.5 C 1505.5,1040.5 1504.5,1040.5 1503.5,1040.5C 1503.5,1020.5 1503.5,1000.5 1503.5,980.5C 1532.9,973.807 1560.56,962.641 1586.5,947C 1609.31,932.858 1626.48,913.691 1638,889.5C 1642.79,877.529 1643.62,865.362 1640.5,853C 1397.51,851.182 1154.51,850.182 911.5,850C 907.332,849.625 903.332,848.625 899.5,847C 898.106,845.261 897.439,843.261 897.5,841C 900.299,822.066 908.633,806.066 922.5,793C 1105.51,791.759 1288.51,792.759 1471.5,796C 1571.83,796.167 1672.17,796.667 1772.5,797.5C 1774.97,800.885 1775.97,804.718 1775.5,809C 1773.33,832.113 1772.16,855.279 1772,878.5C 1768.42,904.941 1758.09,928.274 1741,948.5C 1733.38,957.575 1725.88,966.741 1718.5,976C 1706.62,985.444 1693.62,993.111 1679.5,999C 1623.97,1021.67 1566.3,1035.51 1506.5,1040.5 Z"/></g>
<g><path style="opacity:1" fill="#fefefe" d="M 1355.5,869.5 C 1382.84,869.333 1410.17,869.5 1437.5,870C 1445.16,870.722 1452.83,871.388 1460.5,872C 1464.21,872.936 1467.37,874.769 1470,877.5C 1470.67,890.167 1470.67,902.833 1470,915.5C 1469.42,922.65 1468.09,929.65 1466,936.5C 1468.04,967.374 1466.37,998.041 1461,1028.5C 1458.34,1044.83 1452.01,1059.5 1442,1072.5C 1421.32,1095.86 1397.15,1114.69 1369.5,1129C 1333.36,1146.38 1295.69,1159.38 1256.5,1168C 1249.54,1169.33 1242.54,1169.66 1235.5,1169C 1232.57,1167.73 1229.9,1166.06 1227.5,1164C 1213.27,1150.44 1199.77,1136.27 1187,1121.5C 1183.3,1117.27 1184.13,1114.1 1189.5,1112C 1212.12,1105.13 1234.45,1097.46 1256.5,1089C 1303.5,1069.34 1333.33,1034.84 1346,985.5C 1347.52,969.196 1347.85,952.863 1347,936.5C 1345.5,920.489 1343.83,904.489 1342,888.5C 1341.33,883.5 1341.33,878.5 1342,873.5C 1346.36,871.664 1350.86,870.331 1355.5,869.5 Z"/></g>
<g><path style="opacity:1" fill="#99969a" d="M 848.5,936.5 C 849.494,946.319 849.827,956.319 849.5,966.5C 846.167,966.5 842.833,966.5 839.5,966.5C 842.287,965.523 845.287,965.19 848.5,965.5C 848.5,955.833 848.5,946.167 848.5,936.5 Z"/></g>
<g><path style="opacity:1" fill="#626066" d="M 1503.5,980.5 C 1503.5,1000.5 1503.5,1020.5 1503.5,1040.5C 1504.5,1040.5 1505.5,1040.5 1506.5,1040.5C 1505.43,1041.43 1504.1,1041.77 1502.5,1041.5C 1502.17,1020.99 1502.5,1000.66 1503.5,980.5 Z"/></g>
<g><path style="opacity:1" fill="#fefdfe" d="M 759.5,1063.5 C 798.168,1063.33 836.835,1063.5 875.5,1064C 885.493,1073.01 896.826,1080.01 909.5,1085C 937.681,1096.06 966.347,1105.73 995.5,1114C 997.846,1115.01 999.513,1116.68 1000.5,1119C 993.417,1131.76 984.417,1143.1 973.5,1153C 966.5,1158.67 959.5,1164.33 952.5,1170C 908.329,1165.17 866.329,1152.83 826.5,1133C 809.234,1122.73 792.234,1112.06 775.5,1101C 764.899,1090.57 755.233,1079.4 746.5,1067.5C 750.945,1066.13 755.279,1064.79 759.5,1063.5 Z"/></g>
<g><path style="opacity:1" fill="#25252b" d="M 1312.5,1382.5 C 1311.83,1381.83 1311.17,1381.17 1310.5,1380.5C 1309.08,1379.08 1307.41,1378.08 1305.5,1377.5C 1304.39,1376.71 1303.06,1376.21 1301.5,1376C 927.833,1375.33 554.167,1375.33 180.5,1376C 174.105,1376.24 170.438,1379.41 169.5,1385.5C 168.501,1461.66 168.167,1538 168.5,1614.5C 167.334,1536.67 167.168,1458.67 168,1380.5C 168.346,1378.78 168.846,1377.12 169.5,1375.5C 547.833,1374.33 926.166,1374.17 1304.5,1375C 1310.3,1374.31 1312.97,1376.81 1312.5,1382.5 Z"/></g>
<g><path style="opacity:1" fill="#403f45" d="M 1305.5,1377.5 C 1305.17,1377.5 1304.83,1377.5 1304.5,1377.5C 930.021,1376.17 555.687,1376.17 181.5,1377.5C 177.69,1377.38 174.523,1378.71 172,1381.5C 170.71,1385.73 170.21,1390.06 170.5,1394.5C 170.167,1394.5 169.833,1394.5 169.5,1394.5C 169.5,1391.5 169.5,1388.5 169.5,1385.5C 170.438,1379.41 174.105,1376.24 180.5,1376C 554.167,1375.33 927.833,1375.33 1301.5,1376C 1303.06,1376.21 1304.39,1376.71 1305.5,1377.5 Z"/></g>
<g><path style="opacity:1" fill="#5a585e" d="M 181.5,1377.5 C 555.687,1376.17 930.021,1376.17 1304.5,1377.5C 1306.33,1379.15 1307.66,1381.15 1308.5,1383.5C 1305.58,1380.34 1301.92,1378.5 1297.5,1378C 925.5,1377.5 553.5,1377.33 181.5,1377.5 Z"/></g>
<g><path style="opacity:1" fill="#636067" d="M 181.5,1377.5 C 176.715,1378.17 173.548,1380.83 172,1385.5C 171.5,1459.83 171.333,1534.17 171.5,1608.5C 170.501,1537.34 170.167,1466 170.5,1394.5C 170.21,1390.06 170.71,1385.73 172,1381.5C 174.523,1378.71 177.69,1377.38 181.5,1377.5 Z"/></g>
<g><path style="opacity:1" fill="#67646a" d="M 1308.5,1383.5 C 1309.27,1384.26 1309.77,1385.26 1310,1386.5C 1310.83,1461.67 1310.67,1536.67 1309.5,1611.5C 1309.82,1535.48 1309.49,1459.48 1308.5,1383.5 Z"/></g>
<g><path style="opacity:1" fill="#fefefe" d="M 1435.5,1405.5 C 1478.5,1405.33 1521.5,1405.5 1564.5,1406C 1559.53,1420.4 1554.87,1434.9 1550.5,1449.5C 1519.5,1449.33 1488.5,1449.5 1457.5,1450C 1451.61,1452.89 1447.44,1457.39 1445,1463.5C 1432.66,1485.68 1424.83,1509.35 1421.5,1534.5C 1420.96,1539.93 1423.3,1543.43 1428.5,1545C 1442.39,1547.52 1456.39,1548.69 1470.5,1548.5C 1486.94,1548.17 1503.27,1547.01 1519.5,1545C 1514.45,1560.04 1509.78,1575.21 1505.5,1590.5C 1466.56,1595.2 1427.56,1595.7 1388.5,1592C 1369.2,1586.02 1358.7,1572.85 1357,1552.5C 1358.11,1509.84 1370.11,1470.51 1393,1434.5C 1403.62,1419.45 1417.79,1409.79 1435.5,1405.5 Z"/></g>
<g><path style="opacity:1" fill="#fefefe" d="M 1727.5,1405.5 C 1727.5,1467.17 1727.5,1528.83 1727.5,1590.5C 1709.17,1590.5 1690.83,1590.5 1672.5,1590.5C 1672.5,1577.5 1672.5,1564.5 1672.5,1551.5C 1652.16,1551.33 1631.83,1551.5 1611.5,1552C 1603.6,1564.98 1595.6,1577.81 1587.5,1590.5C 1566.66,1590.83 1545.99,1590.5 1525.5,1589.5C 1558.32,1538.53 1591.16,1487.53 1624,1436.5C 1634.09,1421.74 1647.59,1411.57 1664.5,1406C 1685.5,1405.5 1706.5,1405.33 1727.5,1405.5 Z"/></g>
<g><path style="opacity:1" fill="#fdfdfd" d="M 1931.5,1589.5 C 1913.01,1590.5 1894.34,1590.83 1875.5,1590.5C 1869.49,1573.16 1863.49,1555.82 1857.5,1538.5C 1844.82,1538.17 1832.15,1538.5 1819.5,1539.5C 1813.76,1556.4 1808.42,1573.4 1803.5,1590.5C 1784.17,1590.5 1764.83,1590.5 1745.5,1590.5C 1765.03,1529.08 1784.86,1467.75 1805,1406.5C 1840.1,1405.34 1875.26,1405.17 1910.5,1406C 1928.64,1406.49 1943.81,1413.33 1956,1426.5C 1962.08,1435.27 1964.08,1444.94 1962,1455.5C 1958.47,1489.24 1942.31,1514.9 1913.5,1532.5C 1913.17,1533.17 1912.83,1533.83 1912.5,1534.5C 1919.04,1552.78 1925.37,1571.11 1931.5,1589.5 Z"/></g>
<g><path style="opacity:1" fill="#050506" d="M 1870.5,1499.5 C 1857.79,1500.15 1845.45,1499.48 1833.5,1497.5C 1839.3,1478.11 1845.3,1458.77 1851.5,1439.5C 1865.5,1439.33 1879.5,1439.5 1893.5,1440C 1904.67,1446.5 1908.17,1456 1904,1468.5C 1899.03,1481.47 1890.53,1491.3 1878.5,1498C 1875.83,1498.57 1873.17,1499.07 1870.5,1499.5 Z"/></g>
<g><path style="opacity:1" fill="#969398" d="M 1672.5,1450.5 C 1672.56,1449.96 1672.89,1449.62 1673.5,1449.5C 1674.5,1472.49 1674.83,1495.49 1674.5,1518.5C 1660.32,1518.83 1646.32,1518.5 1632.5,1517.5C 1646.17,1517.5 1659.83,1517.5 1673.5,1517.5C 1673.83,1494.99 1673.5,1472.66 1672.5,1450.5 Z"/></g>
<g><path style="opacity:1" fill="#040406" d="M 1672.5,1450.5 C 1673.5,1472.66 1673.83,1494.99 1673.5,1517.5C 1659.83,1517.5 1646.17,1517.5 1632.5,1517.5C 1645.83,1495.17 1659.17,1472.83 1672.5,1450.5 Z"/></g>
<g><path style="opacity:1" fill="#66646a" d="M 1833.5,1497.5 C 1845.45,1499.48 1857.79,1500.15 1870.5,1499.5C 1858.01,1500.5 1845.34,1500.83 1832.5,1500.5C 1832.26,1499.21 1832.6,1498.21 1833.5,1497.5 Z"/></g>
<g><path style="opacity:1" fill="#626066" d="M 1525.5,1589.5 C 1545.99,1590.5 1566.66,1590.83 1587.5,1590.5C 1566.66,1591.83 1545.66,1591.83 1524.5,1590.5C 1524.62,1589.89 1524.96,1589.56 1525.5,1589.5 Z"/></g>
<g><path style="opacity:1" fill="#817e83" d="M 1727.5,1405.5 C 1728.5,1467.33 1728.83,1529.33 1728.5,1591.5C 1709.66,1591.83 1690.99,1591.5 1672.5,1590.5C 1690.83,1590.5 1709.17,1590.5 1727.5,1590.5C 1727.5,1528.83 1727.5,1467.17 1727.5,1405.5 Z"/></g>
<g><path style="opacity:1" fill="#615f65" d="M 1931.5,1589.5 C 1932.04,1589.56 1932.38,1589.89 1932.5,1590.5C 1913.34,1591.83 1894.34,1591.83 1875.5,1590.5C 1894.34,1590.83 1913.01,1590.5 1931.5,1589.5 Z"/></g>
<g><path style="opacity:1" fill="#78757a" d="M 181.5,1377.5 C 553.5,1377.33 925.5,1377.5 1297.5,1378C 1301.92,1378.5 1305.58,1380.34 1308.5,1383.5C 1309.49,1459.48 1309.82,1535.48 1309.5,1611.5C 1308.46,1617.71 1304.8,1621.54 1298.5,1623C 927,1623.83 555.666,1623.67 184.5,1622.5C 182.073,1622.48 179.74,1621.98 177.5,1621C 175.963,1619.29 174.296,1617.79 172.5,1616.5C 171.735,1613.9 171.401,1611.24 171.5,1608.5C 171.333,1534.17 171.5,1459.83 172,1385.5C 173.548,1380.83 176.715,1378.17 181.5,1377.5 Z"/></g>
<g><path style="opacity:1" fill="#b7b5b8" d="M 1296.5,1380.5 C 1298.59,1380.32 1300.59,1380.65 1302.5,1381.5C 1306,1383.98 1307.67,1387.31 1307.5,1391.5C 1307.67,1463.83 1307.5,1536.17 1307,1608.5C 1306.75,1614.75 1303.58,1618.58 1297.5,1620C 927.167,1620.5 556.833,1620.67 186.5,1620.5C 186.5,1620.17 186.5,1619.83 186.5,1619.5C 556.5,1619.67 926.5,1619.5 1296.5,1619C 1303.43,1617.25 1306.6,1612.75 1306,1605.5C 1306.67,1533.5 1306.67,1461.5 1306,1389.5C 1304.63,1384.8 1301.46,1382.3 1296.5,1382C 926.167,1381.33 555.833,1381.33 185.5,1382C 183.846,1382.61 182.179,1383.11 180.5,1383.5C 181.347,1382.03 182.68,1381.2 184.5,1381C 555.167,1380.5 925.833,1380.33 1296.5,1380.5 Z"/></g>
<g><path style="opacity:1" fill="#cac8cc" d="M 186.5,1619.5 C 183.061,1619.41 180.228,1618.08 178,1615.5C 176.375,1611.67 175.375,1607.67 175,1603.5C 174.333,1534.5 174.333,1465.5 175,1396.5C 174.628,1391.08 176.462,1386.75 180.5,1383.5C 182.179,1383.11 183.846,1382.61 185.5,1382C 555.833,1381.33 926.167,1381.33 1296.5,1382C 1301.46,1382.3 1304.63,1384.8 1306,1389.5C 1306.67,1461.5 1306.67,1533.5 1306,1605.5C 1306.6,1612.75 1303.43,1617.25 1296.5,1619C 926.5,1619.5 556.5,1619.67 186.5,1619.5 Z"/></g>
<g><path style="opacity:1" fill="#f4f3f4" d="M 1290.5,1384.5 C 1293.94,1383.83 1296.61,1384.83 1298.5,1387.5C 1300.66,1387.9 1302,1389.23 1302.5,1391.5C 1303.5,1462.83 1303.83,1534.16 1303.5,1605.5C 1303.5,1606.5 1303.5,1607.5 1303.5,1608.5C 1301.52,1609.9 1299.85,1611.74 1298.5,1614C 1295.9,1614.92 1293.23,1615.59 1290.5,1616C 922.833,1616.5 555.167,1616.67 187.5,1616.5C 185.097,1616.55 182.764,1616.22 180.5,1615.5C 178.394,1613.28 177.394,1610.61 177.5,1607.5C 177.333,1535.83 177.5,1464.17 178,1392.5C 180.022,1388.47 183.188,1385.97 187.5,1385C 555.167,1384.5 922.833,1384.33 1290.5,1384.5 Z"/></g>
<g><path style="opacity:1" fill="#eae9eb" d="M 186.5,1383.5 C 554.667,1383.17 922.667,1383.5 1290.5,1384.5C 922.833,1384.33 555.167,1384.5 187.5,1385C 183.188,1385.97 180.022,1388.47 178,1392.5C 177.5,1464.17 177.333,1535.83 177.5,1607.5C 176.334,1535.33 176.168,1463 177,1390.5C 178.306,1385.7 181.473,1383.37 186.5,1383.5 Z"/></g>
<g><path style="opacity:1" fill="#e0dfe1" d="M 186.5,1383.5 C 556,1382.33 925.666,1382.17 1295.5,1383C 1299.9,1383.73 1302.73,1386.23 1304,1390.5C 1304.83,1462.33 1304.67,1534 1303.5,1605.5C 1303.83,1534.16 1303.5,1462.83 1302.5,1391.5C 1302,1389.23 1300.66,1387.9 1298.5,1387.5C 1296.61,1384.83 1293.94,1383.83 1290.5,1384.5C 922.667,1383.5 554.667,1383.17 186.5,1383.5 Z"/></g>
<g><path style="opacity:1" fill="#a7a4a8" d="M 1294.5,1379.5 C 1295.49,1379.33 1296.16,1379.66 1296.5,1380.5C 925.833,1380.33 555.167,1380.5 184.5,1381C 182.68,1381.2 181.347,1382.03 180.5,1383.5C 176.462,1386.75 174.628,1391.08 175,1396.5C 174.333,1465.5 174.333,1534.5 175,1603.5C 175.375,1607.67 176.375,1611.67 178,1615.5C 180.228,1618.08 183.061,1619.41 186.5,1619.5C 186.5,1619.83 186.5,1620.17 186.5,1620.5C 182.564,1620.52 179.23,1619.19 176.5,1616.5C 175.069,1613.01 174.236,1609.34 174,1605.5C 173.333,1532.83 173.333,1460.17 174,1387.5C 175.362,1382.81 178.529,1380.31 183.5,1380C 553.833,1379.5 924.167,1379.33 1294.5,1379.5 Z"/></g>
<g><path style="opacity:1" fill="#8e8b90" d="M 1294.5,1379.5 C 924.167,1379.33 553.833,1379.5 183.5,1380C 178.529,1380.31 175.362,1382.81 174,1387.5C 173.333,1460.17 173.333,1532.83 174,1605.5C 174.236,1609.34 175.069,1613.01 176.5,1616.5C 175.503,1616.53 174.836,1616.03 174.5,1615C 173.873,1612.86 173.373,1610.7 173,1608.5C 172.333,1534.5 172.333,1460.5 173,1386.5C 174.362,1381.81 177.529,1379.31 182.5,1379C 553.334,1378.17 924,1378.33 1294.5,1379.5 Z"/></g>
<g><path style="opacity:1" fill="#4b494e" d="M 1304.5,1377.5 C 1304.83,1377.5 1305.17,1377.5 1305.5,1377.5C 1307.41,1378.08 1309.08,1379.08 1310.5,1380.5C 1311.65,1459.15 1311.82,1537.82 1311,1616.5C 1310.89,1621.95 1308.05,1624.78 1302.5,1625C 930.333,1625.83 558.333,1625.67 186.5,1624.5C 558.167,1624.83 929.834,1624.5 1301.5,1623.5C 1307.36,1621.64 1310.03,1617.64 1309.5,1611.5C 1310.67,1536.67 1310.83,1461.67 1310,1386.5C 1309.77,1385.26 1309.27,1384.26 1308.5,1383.5C 1307.66,1381.15 1306.33,1379.15 1304.5,1377.5 Z"/></g>
<g><path style="opacity:1" fill="#333238" d="M 1310.5,1380.5 C 1311.17,1381.17 1311.83,1381.83 1312.5,1382.5C 1313.66,1459.81 1313.82,1537.14 1313,1614.5C 1312.89,1618.58 1311.72,1622.25 1309.5,1625.5C 933.514,1626.66 557.514,1626.83 181.5,1626C 176.259,1626.54 172.259,1624.71 169.5,1620.5C 168.539,1618.74 168.205,1616.74 168.5,1614.5C 168.167,1538 168.501,1461.66 169.5,1385.5C 169.5,1388.5 169.5,1391.5 169.5,1394.5C 169.333,1466.83 169.5,1539.17 170,1611.5C 170.004,1619.63 174.171,1623.96 182.5,1624.5C 183.833,1624.5 185.167,1624.5 186.5,1624.5C 558.333,1625.67 930.333,1625.83 1302.5,1625C 1308.05,1624.78 1310.89,1621.95 1311,1616.5C 1311.82,1537.82 1311.65,1459.15 1310.5,1380.5 Z"/></g>
<g><path style="opacity:1" fill="#615e64" d="M 1309.5,1611.5 C 1310.03,1617.64 1307.36,1621.64 1301.5,1623.5C 929.834,1624.5 558.167,1624.83 186.5,1624.5C 185.167,1624.5 183.833,1624.5 182.5,1624.5C 177.702,1623.71 174.368,1621.04 172.5,1616.5C 174.296,1617.79 175.963,1619.29 177.5,1621C 179.74,1621.98 182.073,1622.48 184.5,1622.5C 555.666,1623.67 927,1623.83 1298.5,1623C 1304.8,1621.54 1308.46,1617.71 1309.5,1611.5 Z"/></g>
<g><path style="opacity:1" fill="#8e8b90" d="M 176.5,1616.5 C 179.23,1619.19 182.564,1620.52 186.5,1620.5C 555.666,1621.5 925,1621.83 1294.5,1621.5C 924.667,1622.5 554.667,1622.83 184.5,1622.5C 182.723,1621.4 180.723,1620.57 178.5,1620C 177.177,1619.18 176.511,1618.02 176.5,1616.5 Z"/></g>
<g><path style="opacity:1" fill="#a19ea3" d="M 1307.5,1391.5 C 1308.67,1464 1308.83,1536.67 1308,1609.5C 1307.1,1617.57 1302.6,1621.57 1294.5,1621.5C 925,1621.83 555.666,1621.5 186.5,1620.5C 556.833,1620.67 927.167,1620.5 1297.5,1620C 1303.58,1618.58 1306.75,1614.75 1307,1608.5C 1307.5,1536.17 1307.67,1463.83 1307.5,1391.5 Z"/></g>
<g><path style="opacity:1" fill="#dbd9dc" d="M 180.5,1615.5 C 182.764,1616.22 185.097,1616.55 187.5,1616.5C 555.333,1617.5 923.333,1617.83 1291.5,1617.5C 922.667,1618.67 553.667,1618.83 184.5,1618C 182.68,1617.8 181.347,1616.97 180.5,1615.5 Z"/></g>
<g><path style="opacity:1" fill="#e7e6e8" d="M 1303.5,1608.5 C 1302.89,1615.74 1298.89,1618.74 1291.5,1617.5C 923.333,1617.83 555.333,1617.5 187.5,1616.5C 555.167,1616.67 922.833,1616.5 1290.5,1616C 1293.23,1615.59 1295.9,1614.92 1298.5,1614C 1299.85,1611.74 1301.52,1609.9 1303.5,1608.5 Z"/></g>
<g><path style="opacity:1" fill="#4f4d52" d="M 169.5,1394.5 C 169.833,1394.5 170.167,1394.5 170.5,1394.5C 170.167,1466 170.501,1537.34 171.5,1608.5C 171.401,1611.24 171.735,1613.9 172.5,1616.5C 174.368,1621.04 177.702,1623.71 182.5,1624.5C 174.171,1623.96 170.004,1619.63 170,1611.5C 169.5,1539.17 169.333,1466.83 169.5,1394.5 Z"/></g>
<g><path style="opacity:1" fill="#fefefe" d="M 1298.5,1387.5 C 1299.59,1389.36 1300.43,1391.36 1301,1393.5C 1301.67,1464.5 1301.67,1535.5 1301,1606.5C 1300.56,1610.57 1298.39,1613.07 1294.5,1614C 927.855,1615.66 561.188,1616 194.5,1615C 189.944,1614.89 185.611,1613.89 181.5,1612C 180.874,1611.25 180.374,1610.42 180,1609.5C 179.333,1538.17 179.333,1466.83 180,1395.5C 180.415,1390.09 183.248,1386.92 188.5,1386C 556.5,1385.33 924.5,1385.33 1292.5,1386C 1294.52,1386.5 1296.52,1387 1298.5,1387.5 Z"/></g>
<g><path style="opacity:1" fill="#636066" d="M 1110.5,1589.5 C 1130.33,1590.5 1150.33,1590.83 1170.5,1590.5C 1150.33,1591.83 1130,1591.83 1109.5,1590.5C 1109.62,1589.89 1109.96,1589.56 1110.5,1589.5 Z"/></g>
<g><path style="opacity:1" fill="#050506" d="M 699.5,1405.5 C 736.835,1405.33 774.168,1405.5 811.5,1406C 847.456,1410.77 862.29,1430.94 856,1466.5C 849.205,1495.62 833.039,1517.79 807.5,1533C 802.36,1535.27 797.027,1536.94 791.5,1538C 766.5,1538.33 741.5,1538.67 716.5,1539C 710.129,1556.28 704.462,1573.78 699.5,1591.5C 679.5,1591.5 659.5,1591.5 639.5,1591.5C 658.885,1529.29 678.885,1467.29 699.5,1405.5 Z"/></g>
<g><path style="opacity:1" fill="#636066" d="M 729.5,1498.5 C 740.988,1499.49 752.655,1499.83 764.5,1499.5C 752.66,1500.82 740.66,1500.82 728.5,1499.5C 728.624,1498.89 728.957,1498.56 729.5,1498.5 Z"/></g>
<g><path style="opacity:1" fill="#fdfdfd" d="M 764.5,1499.5 C 752.655,1499.83 740.988,1499.49 729.5,1498.5C 735.294,1478.82 741.627,1459.32 748.5,1440C 762.167,1439.33 775.833,1439.33 789.5,1440C 799.075,1444.98 802.908,1452.82 801,1463.5C 798.148,1475.68 791.982,1485.85 782.5,1494C 776.942,1497.35 770.942,1499.19 764.5,1499.5 Z"/></g>
<g><path style="opacity:1" fill="#040405" d="M 1170.5,1590.5 C 1150.33,1590.83 1130.33,1590.5 1110.5,1589.5C 1125.5,1542.83 1140.5,1496.17 1155.5,1449.5C 1139.35,1448.81 1123.35,1449.98 1107.5,1453C 1095.73,1456.1 1086.07,1462.43 1078.5,1472C 1076.39,1472.85 1075.06,1472.19 1074.5,1470C 1082.43,1454.8 1092.1,1440.8 1103.5,1428C 1122.73,1411.75 1145.07,1403.92 1170.5,1404.5C 1207.16,1405.11 1243.83,1405.78 1280.5,1406.5C 1275.43,1420.71 1270.76,1435.04 1266.5,1449.5C 1249.59,1449.17 1232.76,1449.51 1216,1450.5C 1200.92,1497.23 1185.76,1543.9 1170.5,1590.5 Z"/></g>
<g><path style="opacity:1" fill="#050506" d="M 539.5,1404.5 C 581.167,1404.5 622.833,1404.5 664.5,1404.5C 660.436,1419.36 655.769,1434.03 650.5,1448.5C 620.839,1449.33 591.172,1449.83 561.5,1450C 556.716,1452.45 552.883,1455.95 550,1460.5C 547.597,1465.88 545.097,1471.21 542.5,1476.5C 567.16,1477.33 591.827,1477.83 616.5,1478C 612.407,1489.45 608.407,1500.95 604.5,1512.5C 579.175,1513.5 553.842,1513.83 528.5,1513.5C 526.394,1521.19 524.728,1529.03 523.5,1537C 524.266,1541.11 526.6,1544.11 530.5,1546C 561.248,1549.63 591.915,1549.13 622.5,1544.5C 618.417,1559.92 614.084,1575.25 609.5,1590.5C 570.232,1596.45 530.899,1596.95 491.5,1592C 479.407,1588.91 470.574,1581.75 465,1570.5C 459.407,1556.92 458.074,1542.92 461,1528.5C 466.045,1504.03 473.878,1480.53 484.5,1458C 471.162,1458.5 459.495,1463.17 449.5,1472C 447.359,1472.88 445.693,1472.38 444.5,1470.5C 464.744,1431.9 496.41,1409.9 539.5,1404.5 Z"/></g>
<g><path style="opacity:1" fill="#050506" d="M 280.5,1405.5 C 320.501,1405.33 360.501,1405.5 400.5,1406C 438.263,1410.75 452.763,1431.58 444,1468.5C 437.852,1494.43 429.852,1519.76 420,1544.5C 409.048,1569.13 390.548,1584.63 364.5,1591C 317.168,1591.5 269.835,1591.67 222.5,1591.5C 241.231,1529.31 260.564,1467.31 280.5,1405.5 Z"/></g>
<g><path style="opacity:1" fill="#615e64" d="M 294.5,1551.5 C 308.323,1552.5 322.323,1552.83 336.5,1552.5C 322.328,1553.83 307.994,1553.83 293.5,1552.5C 293.624,1551.89 293.957,1551.56 294.5,1551.5 Z"/></g>
<g><path style="opacity:1" fill="#fdfdfd" d="M 336.5,1552.5 C 322.323,1552.83 308.323,1552.5 294.5,1551.5C 305.956,1514.23 317.289,1476.9 328.5,1439.5C 345.17,1439.33 361.837,1439.5 378.5,1440C 385.774,1443.02 389.774,1448.52 390.5,1456.5C 383.893,1485.49 374.393,1513.49 362,1540.5C 356.096,1549.76 347.596,1553.76 336.5,1552.5 Z"/></g>
<g><path style="opacity:1" fill="#040405" d="M 951.5,1404.5 C 972.169,1404.33 992.836,1404.5 1013.5,1405C 1026.26,1406.19 1038.26,1409.86 1049.5,1416C 1059.08,1422.34 1064.75,1431.17 1066.5,1442.5C 1060.54,1484.87 1048.04,1525.2 1029,1563.5C 1020.55,1575.15 1009.39,1582.98 995.5,1587C 963.778,1593.58 931.778,1595.24 899.5,1592C 882.3,1591.07 868.134,1584.23 857,1571.5C 851.344,1560.02 850.011,1548.02 853,1535.5C 860.096,1499.88 871.763,1465.88 888,1433.5C 897.016,1422.4 908.516,1414.9 922.5,1411C 932.17,1408.24 941.837,1406.07 951.5,1404.5 Z"/></g>
<g><path style="opacity:1" fill="#fdfdfd" d="M 963.5,1440.5 C 972.541,1440.28 981.541,1440.78 990.5,1442C 1002.27,1444.37 1006.1,1451.2 1002,1462.5C 994.714,1491.03 985.047,1518.69 973,1545.5C 968.271,1550.62 962.438,1553.78 955.5,1555C 944.457,1556.72 933.457,1556.72 922.5,1555C 916.744,1552.75 913.41,1548.58 912.5,1542.5C 918.636,1510.93 928.47,1480.59 942,1451.5C 948.082,1445.54 955.249,1441.88 963.5,1440.5 Z"/></g>
<g><path style="opacity:1" fill="#1f1f24" d="M 169.5,1620.5 C 172.259,1624.71 176.259,1626.54 181.5,1626C 557.514,1626.83 933.514,1626.66 1309.5,1625.5C 1308.39,1626.29 1307.06,1626.79 1305.5,1627C 928.833,1627.67 552.167,1627.67 175.5,1627C 171.215,1626.88 169.215,1624.72 169.5,1620.5 Z"/></g>
</svg>
